<svg width="598" height="299" viewBox="0 0 598 299" fill="none" xmlns="http://www.w3.org/2000/svg">
<path d="M292.492 298.999C450.105 298.999 577.875 290.581 577.875 280.198C577.875 269.813 450.105 261.396 292.492 261.396C134.88 261.396 7.11035 269.813 7.11035 280.198C7.11035 290.581 134.88 298.999 292.492 298.999Z" fill="#F2F2F2"/>
<path d="M173.833 217.855H154.608V161.518C154.608 158.525 153.413 155.655 151.287 153.539C149.162 151.423 146.278 150.235 143.27 150.235H138.766C137.277 150.235 135.802 150.526 134.427 151.093C133.051 151.66 131.802 152.491 130.749 153.539C129.697 154.587 128.862 155.831 128.291 157.2C127.722 158.568 127.429 160.036 127.429 161.518V217.855H73.2032C72.0876 217.855 70.9911 217.568 70.0198 217.022C69.0485 216.476 68.2355 215.689 67.6597 214.738C67.084 213.788 66.7649 212.705 66.7334 211.595C66.7021 210.485 66.9595 209.386 67.4806 208.406L124.872 100.306C125.587 98.9578 126.021 97.4798 126.147 95.9606C126.272 94.4416 126.088 92.9129 125.604 91.4668C125.12 90.0207 124.346 88.6874 123.329 87.5471C122.313 86.407 121.073 85.4836 119.688 84.8327L116.301 83.2405C113.67 82.0043 110.663 81.8216 107.901 82.7306C105.138 83.6396 102.833 85.5705 101.462 88.1238L31.4649 218.433C30.273 220.653 29.6494 223.13 29.6494 225.646C29.6494 227.655 30.0471 229.644 30.8197 231.5C31.5922 233.357 32.7246 235.043 34.1521 236.464C35.5797 237.885 37.2744 239.011 39.1396 239.78C41.0047 240.549 43.0038 240.945 45.0227 240.945H127.429V276.569C127.429 278.345 127.781 280.103 128.464 281.744C129.146 283.385 130.148 284.875 131.409 286.131C132.671 287.388 134.168 288.383 135.818 289.064C137.466 289.743 139.234 290.092 141.018 290.092C142.802 290.092 144.57 289.743 146.218 289.064C147.867 288.383 149.366 287.388 150.628 286.131C151.89 284.875 152.891 283.385 153.574 281.744C154.256 280.103 154.608 278.345 154.608 276.569V240.945H173.833C176.909 240.945 179.859 239.729 182.035 237.563C184.21 235.398 185.433 232.462 185.433 229.4C185.433 226.338 184.21 223.401 182.035 221.236C179.859 219.071 176.909 217.855 173.833 217.855Z" fill="#BDB9BF"/>
<path d="M529.814 217.855H510.59V161.518C510.59 158.525 509.395 155.655 507.269 153.539C505.143 151.423 502.26 150.235 499.252 150.235H494.748C493.259 150.235 491.785 150.526 490.409 151.093C489.033 151.66 487.783 152.491 486.731 153.539C485.678 154.587 484.844 155.831 484.273 157.2C483.704 158.568 483.411 160.036 483.411 161.518V217.855H429.185C428.07 217.855 426.973 217.568 426.002 217.022C425.03 216.476 424.217 215.689 423.642 214.738C423.065 213.788 422.746 212.705 422.715 211.595C422.684 210.485 422.941 209.386 423.463 208.406L480.854 100.306C481.569 98.9578 482.003 97.4798 482.129 95.9606C482.254 94.4416 482.07 92.9129 481.586 91.4668C481.101 90.0207 480.328 88.6874 479.311 87.5471C478.294 86.407 477.056 85.4836 475.67 84.8327L472.283 83.2405C469.652 82.0043 466.644 81.8216 463.883 82.7306C461.12 83.6396 458.815 85.5705 457.443 88.1238L387.447 218.433C386.255 220.653 385.632 223.13 385.632 225.646C385.632 229.703 387.251 233.595 390.134 236.464C393.017 239.333 396.927 240.945 401.004 240.945H483.411V276.569C483.411 280.156 484.842 283.596 487.391 286.131C489.94 288.668 493.396 290.092 497 290.092C500.605 290.092 504.061 288.668 506.61 286.131C509.158 283.596 510.59 280.156 510.59 276.569V240.945H529.814C532.891 240.945 535.841 239.729 538.017 237.563C540.192 235.398 541.414 232.462 541.414 229.4C541.414 226.338 540.192 223.401 538.017 221.236C535.841 219.071 532.891 217.855 529.814 217.855Z" fill="#BDB9BF"/>
<path d="M179.136 211.258H159.911V154.921C159.911 153.439 159.618 151.972 159.049 150.603C158.478 149.234 157.643 147.99 156.591 146.942C155.539 145.895 154.289 145.065 152.913 144.497C151.537 143.93 150.063 143.638 148.574 143.638H144.07C141.062 143.638 138.179 144.827 136.053 146.942C133.927 149.059 132.732 151.928 132.732 154.921V211.258H78.5068C77.3913 211.258 76.2947 210.971 75.3234 210.425C74.3521 209.879 73.5392 209.093 72.9634 208.142C72.3876 207.191 72.0685 206.108 72.0371 204.999C72.0058 203.889 72.2631 202.79 72.7843 201.809L130.176 93.7089C130.891 92.3612 131.325 90.8831 131.451 89.3641C131.577 87.8449 131.391 86.3162 130.907 84.8701C130.423 83.424 129.649 82.0907 128.632 80.9504C127.616 79.8103 126.378 78.8869 124.993 78.236L121.604 76.6439C118.974 75.4076 115.966 75.2249 113.204 76.1339C110.442 77.0429 108.137 78.9738 106.765 81.527L36.7687 211.836C35.5767 214.056 34.9531 216.533 34.9531 219.049C34.9531 223.106 36.5727 226.998 39.4558 229.867C42.3389 232.736 46.2491 234.348 50.3264 234.348H132.732V269.972C132.732 271.749 133.084 273.507 133.767 275.148C134.449 276.789 135.45 278.28 136.712 279.536C137.974 280.792 139.473 281.788 141.121 282.467C142.77 283.146 144.538 283.497 146.322 283.497C149.926 283.497 153.382 282.071 155.931 279.536C158.479 276.999 159.911 273.559 159.911 269.972V234.348H179.136C180.659 234.348 182.167 234.049 183.575 233.469C184.983 232.889 186.261 232.039 187.339 230.966C188.417 229.895 189.271 228.622 189.854 227.221C190.437 225.821 190.737 224.319 190.737 222.803C190.737 221.287 190.437 219.786 189.854 218.385C189.271 216.985 188.417 215.712 187.339 214.64C186.261 213.568 184.983 212.718 183.575 212.138C182.167 211.557 180.659 211.258 179.136 211.258Z" stroke="#3F3D56" stroke-miterlimit="10" stroke-linecap="square"/>
<path d="M539.758 211.258H520.533V154.921C520.533 151.928 519.338 149.059 517.212 146.942C515.087 144.827 512.202 143.638 509.195 143.638H504.691C503.202 143.638 501.727 143.93 500.352 144.497C498.977 145.065 497.727 145.895 496.674 146.942C495.622 147.99 494.787 149.234 494.217 150.603C493.647 151.972 493.354 153.439 493.354 154.921V211.258H439.129C438.013 211.258 436.916 210.971 435.945 210.425C434.974 209.879 434.161 209.093 433.585 208.142C433.009 207.191 432.689 206.108 432.658 204.999C432.627 203.889 432.884 202.79 433.406 201.809L490.797 93.7089C491.512 92.3612 491.946 90.8831 492.072 89.3641C492.198 87.8449 492.013 86.3162 491.529 84.8701C491.045 83.424 490.271 82.0907 489.254 80.9504C488.238 79.8103 486.999 78.8869 485.614 78.236L482.227 76.6439C479.595 75.4076 476.587 75.2249 473.826 76.1339C471.063 77.0429 468.758 78.9738 467.387 81.527L397.391 211.836C396.198 214.056 395.575 216.533 395.575 219.049C395.575 223.106 397.195 226.998 400.077 229.867C402.961 232.736 406.87 234.348 410.947 234.348H493.354V269.972C493.354 273.559 494.786 276.999 497.334 279.536C499.883 282.071 503.34 283.497 506.943 283.497C510.548 283.497 514.004 282.071 516.553 279.536C519.102 276.999 520.533 273.559 520.533 269.972V234.348H539.758C541.28 234.348 542.79 234.049 544.196 233.469C545.604 232.889 546.884 232.039 547.96 230.966C549.038 229.895 549.893 228.622 550.475 227.221C551.058 225.821 551.358 224.319 551.358 222.803C551.358 219.742 550.135 216.804 547.96 214.64C545.784 212.475 542.834 211.258 539.758 211.258Z" stroke="#3F3D56" stroke-miterlimit="10" stroke-linecap="square"/>
<path d="M283.275 263.082C251.07 263.082 234.246 244.28 234.246 189.906C234.246 141.928 251.759 116.627 283.964 116.627C316.168 116.627 333.683 133.246 333.683 189.906C333.683 242.909 315.479 263.082 283.275 263.082ZM282.97 90.8984C236.473 90.8984 203.089 120.585 203.089 189.854C203.089 268.36 236.473 289.14 282.97 289.14C329.465 289.14 364.838 266.38 364.838 189.854C364.838 108.051 329.465 90.8984 282.97 90.8984Z" fill="#030229"/>
<path d="M293.882 257.145C261.677 257.145 244.852 238.343 244.852 183.968C244.852 135.99 262.366 110.69 294.571 110.69C326.776 110.69 344.289 127.309 344.289 183.968C344.289 236.972 326.087 257.145 293.882 257.145ZM293.576 84.9609C247.08 84.9609 213.696 114.648 213.696 183.917C213.696 262.423 247.08 283.203 293.576 283.203C340.073 283.203 375.446 260.444 375.446 183.917C375.446 102.113 340.073 84.9609 293.576 84.9609Z" stroke="#030229" stroke-miterlimit="10" stroke-linecap="square"/>
</svg>
