<svg width="1440" height="400" viewBox="0 0 1440 400" fill="none" xmlns="http://www.w3.org/2000/svg">
<rect x="1" width="1440" height="400" fill="#001C80"/>
<mask id="mask0_4551_132796" style="mask-type:alpha" maskUnits="userSpaceOnUse" x="1" y="0" width="1440" height="400">
<rect x="1" width="1440" height="400" fill="#2B59FF"/>
</mask>
<g mask="url(#mask0_4551_132796)">
<ellipse cx="1477.3" cy="-82.9723" rx="308.889" ry="344.272" fill="#FFC83E"/>
<ellipse cx="1588.41" cy="65.6349" rx="280" ry="312.074" fill="#00BB98"/>
</g>
<path opacity="0.1" d="M819.333 8.1173e-05C819.267 12.3507 824.271 24.2207 833.245 32.9989C842.219 41.7771 854.427 46.7444 867.183 46.808C879.939 46.8716 892.2 42.0263 901.266 33.3381C910.333 24.6499 915.463 12.8304 915.529 0.479784L819.333 8.1173e-05Z" fill="white"/>
<path opacity="0.1" d="M0.542377 176.933C10.998 176.864 20.9969 172.801 28.3393 165.639C35.6817 158.477 39.7662 148.802 39.6943 138.742C39.6224 128.682 35.3999 119.062 27.9558 111.998C20.5116 104.934 10.4557 101.004 0 101.073L0.542377 176.933Z" fill="white"/>
<ellipse opacity="0.1" cx="490.958" cy="306.405" rx="12.1856" ry="11.7241" fill="white"/>
</svg>
