<svg width="17" height="17" viewBox="0 0 17 17" fill="none" xmlns="http://www.w3.org/2000/svg">
<path d="M14.7208 11.1616C13.7409 11.1616 12.7788 11.0083 11.8671 10.7069C11.4203 10.5544 10.8711 10.6943 10.5984 10.9744L8.79879 12.3333C6.71175 11.2189 5.42618 9.93338 4.32733 7.86138L5.64587 6.10811C5.98844 5.7659 6.11131 5.26601 5.9641 4.79696C5.6615 3.88014 5.50779 2.91816 5.50779 1.93755C5.50783 1.22915 4.93169 0.652832 4.22355 0.652832H1.28428C0.576141 0.652832 0 1.22915 0 1.93751C0 10.0572 6.60368 16.6628 14.7208 16.6628C15.429 16.6628 16.0051 16.0865 16.0051 15.3782V12.4462C16.0051 11.7379 15.4289 11.1616 14.7208 11.1616Z" fill="#FD4C5C"/>
</svg>
