<svg width="60" height="60" viewBox="0 0 60 60" fill="none" xmlns="http://www.w3.org/2000/svg">
<circle opacity="0.1" cx="30" cy="30" r="30" fill="#FD4C5C"/>
<path fill-rule="evenodd" clip-rule="evenodd" d="M36.5097 24.9772C36.5097 28.1101 34.0121 30.6222 30.8973 30.6222C27.7825 30.6222 25.2849 28.1101 25.2849 24.9772C25.2849 21.8431 27.7825 19.3334 30.8973 19.3334C34.0121 19.3334 36.5097 21.8431 36.5097 24.9772ZM30.8973 40.6667C26.3224 40.6667 22.416 39.9414 22.416 37.0403C22.416 34.1379 26.2973 33.3862 30.8973 33.3862C35.4722 33.3862 39.3785 34.1115 39.3785 37.0138C39.3785 39.915 35.4973 40.6667 30.8973 40.6667ZM38.908 25.079C38.908 26.6761 38.4317 28.1639 37.596 29.4007C37.51 29.528 37.5864 29.6997 37.738 29.7261C37.947 29.7622 38.1631 29.7826 38.3827 29.7886C40.5735 29.8462 42.5398 28.4281 43.083 26.293C43.8877 23.1217 41.525 20.2746 38.5165 20.2746C38.1893 20.2746 37.8765 20.3094 37.5721 20.3718C37.5303 20.3814 37.4861 20.4007 37.4623 20.4379C37.4336 20.4835 37.4551 20.5448 37.4838 20.5844C38.3875 21.8584 38.908 23.4123 38.908 25.079ZM42.5362 32.0168C44.0083 32.3062 44.9765 32.897 45.3776 33.7556C45.7167 34.4604 45.7167 35.2782 45.3776 35.9819C44.764 37.3136 42.7857 37.7411 42.0169 37.8515C41.8581 37.8755 41.7304 37.7375 41.7471 37.5777C42.1398 33.8877 39.0155 32.1381 38.2072 31.7358C38.1726 31.7178 38.1655 31.6902 38.169 31.6734C38.1714 31.6614 38.1857 31.6421 38.212 31.6385C39.961 31.6061 41.8414 31.8463 42.5362 32.0168ZM23.5481 29.7885C23.7677 29.7825 23.9826 29.7632 24.1928 29.726C24.3444 29.6996 24.4208 29.5279 24.3348 29.4006C23.4991 28.1638 23.0228 26.676 23.0228 25.0789C23.0228 23.4122 23.5433 21.8583 24.447 20.5843C24.4757 20.5446 24.496 20.4834 24.4685 20.4378C24.4447 20.4017 24.3993 20.3813 24.3587 20.3717C24.0531 20.3093 23.7403 20.2744 23.4132 20.2744C20.4046 20.2744 18.0419 23.1216 18.8478 26.2929C19.391 28.4279 21.3573 29.8461 23.5481 29.7885ZM23.7612 31.6726C23.7648 31.6907 23.7576 31.7171 23.7242 31.7363C22.9147 32.1386 19.7904 33.8881 20.1831 37.577C20.1999 37.7379 20.0733 37.8748 19.9145 37.852C19.1457 37.7415 17.1674 37.314 16.5538 35.9824C16.2135 35.2775 16.2135 34.4609 16.5538 33.7561C16.9549 32.8975 17.9219 32.3067 19.394 32.0161C20.09 31.8468 21.9692 31.6066 23.7194 31.639C23.7456 31.6426 23.7588 31.6618 23.7612 31.6726Z" fill="#FD4C5C"/>
</svg>
