<svg width="19" height="14" viewBox="0 0 19 14" fill="none" xmlns="http://www.w3.org/2000/svg">
<path d="M0.392059 1.69561C2.96872 3.68743 7.48997 7.19164 8.81882 8.28426C8.99721 8.43173 9.18855 8.5067 9.38718 8.5067C9.5854 8.5067 9.77641 8.43243 9.95439 8.28567C11.2844 7.19198 15.8056 3.68743 18.3823 1.69561C18.5428 1.57184 18.5672 1.35429 18.4373 1.20297C18.1371 0.853315 17.6894 0.652832 17.2097 0.652832H1.56467C1.08494 0.652832 0.637259 0.853316 0.337057 1.20301C0.207179 1.35429 0.231636 1.57184 0.392059 1.69561Z" fill="#FD4C5C"/>
<path d="M18.5472 2.77303C18.4085 2.71412 18.2454 2.73467 18.1301 2.82464C15.2726 5.03572 11.6257 7.86986 10.4783 8.81361C9.83427 9.34424 8.94048 9.34424 8.29498 8.8129C7.07195 7.80707 2.97657 4.62919 0.643965 2.82461C0.527837 2.73464 0.364371 2.71479 0.226865 2.773C0.0886267 2.8316 0 2.95782 0 3.09692V12.0752C0 12.8628 0.701644 13.5032 1.56452 13.5032H17.2096C18.0724 13.5032 18.7741 12.8628 18.7741 12.0752V3.09692C18.7741 2.95782 18.6854 2.83127 18.5472 2.77303Z" fill="#FD4C5C"/>
</svg>
