<svg width="40" height="40" viewBox="0 0 40 40" fill="none" xmlns="http://www.w3.org/2000/svg">
<rect width="40" height="40" rx="8" fill="#E2D6FF"/>
<rect x="4" y="4" width="32" height="32" rx="8" fill="#38C8E8"/>
<path d="M20.3805 13.3998L24.8054 14.8844C25.3008 15.0498 25.6357 15.5048 25.6383 16.0147L25.6665 20.4418C25.6753 21.7839 25.186 23.0855 24.29 24.1053C23.8779 24.5734 23.3497 24.9755 22.6752 25.335L20.2966 26.6065C20.2221 26.6458 20.1402 26.666 20.0577 26.6667C19.9751 26.6673 19.8926 26.6477 19.8187 26.6091L17.418 25.367C16.7361 25.0134 16.2032 24.6172 15.7871 24.1557C14.8763 23.1463 14.3703 21.8506 14.3615 20.5065L14.3333 16.0827C14.3307 15.5721 14.6595 15.1138 15.1522 14.9419L19.5603 13.4043C19.8221 13.3115 20.114 13.3095 20.3805 13.3998ZM22.4965 18.1458C22.2985 17.9556 21.9797 17.9569 21.7844 18.1497L19.5387 20.3633L18.6192 19.4794C18.4212 19.2892 18.1031 19.2912 17.9071 19.484C17.7118 19.6769 17.7138 19.9867 17.9118 20.177L19.189 21.406C19.2884 21.5014 19.4172 21.5485 19.5461 21.5472C19.675 21.5465 19.8032 21.4982 19.9011 21.4014L22.5005 18.8388C22.6958 18.6459 22.6938 18.336 22.4965 18.1458Z" fill="white"/>
</svg>
