<svg width="33" height="32" viewBox="0 0 33 32" fill="none" xmlns="http://www.w3.org/2000/svg">
<path fill-rule="evenodd" clip-rule="evenodd" d="M23.9022 0C29.3006 0 32.9277 3.7894 32.9277 9.42884V22.5712C32.9277 28.2106 29.3006 32 23.9022 32H9.95322C4.5549 32 0.927734 28.2106 0.927734 22.5712V9.42884C0.927734 3.7894 4.5549 0 9.95322 0H23.9022ZM23.9022 2.23256H9.95322C5.82746 2.23256 3.16029 5.056 3.16029 9.42884V22.5712C3.16029 26.944 5.82746 29.7674 9.95322 29.7674H23.9022C28.0295 29.7674 30.6952 26.944 30.6952 22.5712V9.42884C30.6952 5.056 28.0295 2.23256 23.9022 2.23256ZM16.9277 9.41738C17.5439 9.41738 18.044 9.91747 18.044 10.5337V14.8688L22.3849 14.8691C23.001 14.8691 23.5011 15.3692 23.5011 15.9854C23.5011 16.6016 23.001 17.1017 22.3849 17.1017L18.044 17.1014V21.439C18.044 22.0551 17.5439 22.5552 16.9277 22.5552C16.3115 22.5552 15.8115 22.0551 15.8115 21.439V17.1014L11.4706 17.1017C10.8529 17.1017 10.3543 16.6016 10.3543 15.9854C10.3543 15.3692 10.8529 14.8691 11.4706 14.8691L15.8115 14.8688V10.5337C15.8115 9.91747 16.3115 9.41738 16.9277 9.41738Z" fill="black"/>
</svg>
