<svg width="96" height="56" fill="none" xmlns="http://www.w3.org/2000/svg">
  <path d="M6.268 35.446a7.12 7.12 0 0 0 1.497 1.168c.496.298 1.015.555 1.552.769.424.175.861.317 1.308.424.252.066.509.109.768.13.33 0 .744 0 1.248-.04.491-.022.978-.1 1.452-.23.44-.119.847-.333 1.193-.629a1.55 1.55 0 0 0 .5-1.232c.019-.4-.079-.797-.28-1.143a2.25 2.25 0 0 0-.824-.719 6.86 6.86 0 0 0-1.322-.53c-.524-.149-1.108-.328-1.757-.538a20.796 20.796 0 0 1-5.086-1.996 11.279 11.279 0 0 1-3.169-2.58 8.418 8.418 0 0 1-1.632-3.065 12.711 12.711 0 0 1-.464-3.494 8.769 8.769 0 0 1 .848-3.877 8.484 8.484 0 0 1 2.416-2.995 11.42 11.42 0 0 1 3.748-1.926 17.468 17.468 0 0 1 7.88-.41c.93.174 1.835.459 2.696.849.884.405 1.721.907 2.495 1.497a19.872 19.872 0 0 1 2.425 2.171c.253.26.411.598.45.958a1.313 1.313 0 0 1-.58.963 97.777 97.777 0 0 0-1.91 1.618 35.742 35.742 0 0 0-1.887 1.771c-.176.159-.389.27-.62.325a1.232 1.232 0 0 1-.588 0 1.668 1.668 0 0 1-.539-.255 2.12 2.12 0 0 1-.46-.439 4.566 4.566 0 0 0-2.055-1.348 7.555 7.555 0 0 0-2.156-.344 3.957 3.957 0 0 0-1.997.434 1.348 1.348 0 0 0-.693 1.338 1.412 1.412 0 0 0 .499 1.038c.329.265.702.47 1.103.604.452.159.916.284 1.387.374.5.095.938.2 1.348.32 1.442.456 2.857.995 4.237 1.616a12.978 12.978 0 0 1 3.339 2.147 8.914 8.914 0 0 1 2.195 3.039c.555 1.368.82 2.836.78 4.312a9.88 9.88 0 0 1-1 4.547 9.672 9.672 0 0 1-2.784 3.364 12.768 12.768 0 0 1-4.197 2.08c-1.698.491-3.458.733-5.226.72a18.901 18.901 0 0 1-3.234-.285 15.279 15.279 0 0 1-3.184-.908 14.298 14.298 0 0 1-2.93-1.623 11.428 11.428 0 0 1-2.46-2.4 2.646 2.646 0 0 1-.424-.754 2.086 2.086 0 0 1-.13-.783c.006-.244.059-.485.155-.709.1-.219.254-.408.45-.549l3.313-3.314a1.158 1.158 0 0 1 1.088-.36c.464.213.878.519 1.218.9ZM69.431 14.984a1.786 1.786 0 0 1 .644-1.497 2.23 2.23 0 0 1 1.408-.5h5.829a1.797 1.797 0 0 1 1.437.595c.337.391.515.895.5 1.412V44.47a10.37 10.37 0 0 1-.999 4.491 11.98 11.98 0 0 1-2.7 3.674 12.836 12.836 0 0 1-3.888 2.46c-1.453.597-3.01.902-4.581.898h-.62a1.996 1.996 0 0 1-1.412-.574 1.817 1.817 0 0 1-.499-1.272v-3.688a1.997 1.997 0 0 1 .574-1.498 1.942 1.942 0 0 1 1.403-.564h.539a1.331 1.331 0 0 0 .948-.424c.304-.302.555-.653.744-1.038.214-.412.382-.848.499-1.297.105-.39.162-.79.17-1.193l.004-29.461Zm-.13-12.976A2.072 2.072 0 0 1 69.767.48a1.996 1.996 0 0 1 1.437-.45h5.954a2.236 2.236 0 0 1 1.453.45 1.861 1.861 0 0 1 .553 1.527v4.99a1.84 1.84 0 0 1-.144.67c-.1.247-.232.48-.395.693-.174.22-.387.406-.628.55a1.642 1.642 0 0 1-.839.219h-5.954c-1.267 0-1.901-.71-1.901-2.131V2.008ZM85.597 1.993c-.055-.55.11-1.099.459-1.527a1.996 1.996 0 0 1 1.437-.45h5.96a2.236 2.236 0 0 1 1.451.45 1.877 1.877 0 0 1 .55 1.527v4.99c-.005.23-.052.457-.14.67a2.962 2.962 0 0 1-.4.693 2.15 2.15 0 0 1-.628.55c-.253.146-.541.222-.834.219h-5.959c-1.26 0-1.893-.71-1.896-2.131V1.993Zm0 12.976a2.24 2.24 0 0 1 .459-1.412 1.717 1.717 0 0 1 1.437-.594h5.884c.229.006.454.055.664.144.245.097.471.236.669.41.197.183.365.395.499.629.151.247.228.533.22.823v28.627a1.922 1.922 0 0 1-.54 1.498c-.429.357-.98.536-1.537.499h-5.859c-1.26 0-1.893-.666-1.896-1.997V14.97Z" fill="#430297"/>
  <path d="M47.746 17.953a8.739 8.739 0 1 0 0-17.477 8.739 8.739 0 0 0 0 17.477ZM65.214 28.834v.379a4.097 4.097 0 0 1-.07.898v.135a8.635 8.635 0 0 1-1.023 2.895 5.583 5.583 0 0 1-.3.499l-.08.12c-.13.198-.272.39-.423.573l-.15.175c-.085.105-.18.21-.275.31l-.399.399-8.759 8.724a8.744 8.744 0 0 1-12.157-.19l-8.734-8.739a8.739 8.739 0 0 1-2.261-3.898c0-.07-.035-.14-.05-.204a8.483 8.483 0 0 1-.19-1.073c0-.075 0-.15-.025-.23a8.74 8.74 0 0 1 10.201-9.383c.094.012.188.029.28.05l.18.04c.2.045.394.095.589.155.194.06.319.1.474.155a.46.46 0 0 0 .114.045c.132.064.267.12.405.17a14.13 14.13 0 0 0 10.555-.07l.15-.06c.474-.193.965-.34 1.467-.44l.345-.065a8.743 8.743 0 0 1 10.136 8.63Z" fill="#FDA800"/>
</svg>