<svg width="281" height="262" viewBox="0 0 281 262" fill="none" xmlns="http://www.w3.org/2000/svg">
<path d="M37.0573 176.771L52.6981 174.128L66.2333 160.347L90.4421 185.518L107.186 175.114L118.997 184.718L142.136 159.294L160.341 157.608L179.863 128.723L201.076 149.975L213.603 130.588L221.421 129.468L231.814 110.204L252.12 143.81L280.512 261.404H0.511719L37.0573 176.771Z" fill="#DBDBDB"/>
<path d="M39.7957 213.664L39.4485 213.221L62.9853 194.864L97.3077 191.924L97.3525 191.936L127.704 199.977L154.237 176.944L154.321 176.933L191.494 171.591L219.214 152.943L232.061 123.644L232.57 123.868L219.662 153.318L219.595 153.363L191.701 172.128L191.64 172.14L154.484 177.476L127.85 200.599L127.704 200.56L97.2573 192.49L63.1981 195.408L39.7957 213.664Z" fill="white"/>
<path d="M37.6509 216.536C39.4385 216.536 40.8877 215.087 40.8877 213.299C40.8877 211.512 39.4385 210.062 37.6509 210.062C35.8632 210.062 34.4141 211.512 34.4141 213.299C34.4141 215.087 35.8632 216.536 37.6509 216.536Z" fill="#DBDBDB"/>
<path d="M37.6508 216.816C36.9537 216.817 36.2719 216.612 35.6918 216.225C35.1116 215.838 34.6593 215.288 34.392 214.644C34.1247 214.001 34.0545 213.292 34.1902 212.608C34.3259 211.924 34.6615 211.296 35.1545 210.803C35.6474 210.31 36.2756 209.975 36.9594 209.839C37.6432 209.703 38.3519 209.773 38.9958 210.041C39.6396 210.308 40.1897 210.76 40.5763 211.34C40.9629 211.921 41.1687 212.602 41.1676 213.299C41.1661 214.232 40.7951 215.125 40.1359 215.785C39.4767 216.444 38.5831 216.815 37.6508 216.816ZM37.6508 210.337C37.0647 210.336 36.4914 210.509 36.0035 210.834C35.5156 211.158 35.135 211.621 34.9099 212.162C34.6848 212.703 34.6254 213.299 34.739 213.874C34.8527 214.449 35.1344 214.977 35.5485 215.392C35.9626 215.807 36.4904 216.09 37.0652 216.205C37.64 216.319 38.2359 216.261 38.7776 216.037C39.3192 215.813 39.7822 215.433 40.108 214.946C40.4337 214.459 40.6076 213.886 40.6076 213.299C40.6076 212.515 40.2963 211.762 39.7419 211.207C39.1876 210.651 38.4355 210.339 37.6508 210.337Z" fill="white"/>
<path d="M62.9404 198.37C64.7281 198.37 66.1772 196.921 66.1772 195.133C66.1772 193.346 64.7281 191.896 62.9404 191.896C61.1528 191.896 59.7036 193.346 59.7036 195.133C59.7036 196.921 61.1528 198.37 62.9404 198.37Z" fill="#DBDBDB"/>
<path d="M62.9406 198.683C62.2437 198.683 61.5625 198.477 60.9831 198.089C60.4037 197.702 59.9522 197.152 59.6858 196.508C59.4194 195.864 59.3499 195.155 59.4863 194.472C59.6227 193.788 59.9587 193.161 60.4519 192.668C60.9451 192.176 61.5732 191.841 62.2569 191.706C62.9405 191.57 63.6489 191.641 64.2925 191.908C64.936 192.176 65.4857 192.628 65.8721 193.208C66.2585 193.788 66.4641 194.47 66.463 195.167C66.4615 196.1 66.0898 196.994 65.4293 197.654C64.7689 198.313 63.8738 198.683 62.9406 198.683ZM62.9406 192.204C62.3547 192.204 61.782 192.378 61.2948 192.704C60.8076 193.029 60.4279 193.492 60.2037 194.033C59.9795 194.574 59.9208 195.17 60.0351 195.745C60.1494 196.319 60.4316 196.847 60.8459 197.261C61.2602 197.676 61.788 197.958 62.3627 198.072C62.9373 198.186 63.533 198.128 64.0743 197.904C64.6156 197.679 65.0782 197.3 65.4038 196.812C65.7293 196.325 65.903 195.753 65.903 195.167C65.9067 194.775 65.8328 194.387 65.6856 194.024C65.5384 193.662 65.3208 193.332 65.0453 193.054C64.7699 192.776 64.442 192.555 64.0808 192.404C63.7195 192.254 63.332 192.176 62.9406 192.176V192.204Z" fill="white"/>
<path d="M100.522 191.717C100.523 192.359 100.334 192.987 99.978 193.521C99.6222 194.055 99.1158 194.471 98.5231 194.717C97.9304 194.963 97.278 195.028 96.6486 194.903C96.0191 194.778 95.4408 194.469 94.987 194.016C94.5332 193.562 94.2243 192.984 94.0994 192.354C93.9745 191.725 94.0391 191.072 94.2852 190.479C94.5313 189.887 94.9478 189.38 95.4819 189.025C96.0159 188.669 96.6436 188.479 97.2853 188.48C98.1438 188.48 98.9671 188.821 99.5741 189.429C100.181 190.036 100.522 190.859 100.522 191.717Z" fill="#DBDBDB"/>
<path d="M97.2854 195.234C96.5898 195.234 95.9099 195.028 95.3315 194.641C94.7532 194.255 94.3024 193.705 94.0363 193.063C93.7701 192.42 93.7004 191.713 93.8361 191.031C93.9718 190.349 94.3068 189.722 94.7986 189.23C95.2904 188.738 95.9171 188.403 96.5993 188.268C97.2815 188.132 97.9886 188.202 98.6312 188.468C99.2738 188.734 99.823 189.185 100.209 189.763C100.596 190.342 100.802 191.021 100.802 191.717C100.801 192.649 100.43 193.543 99.7705 194.202C99.1113 194.861 98.2176 195.232 97.2854 195.234ZM97.2854 188.76C96.7006 188.76 96.1289 188.934 95.6426 189.259C95.1564 189.583 94.7774 190.045 94.5536 190.585C94.3298 191.126 94.2713 191.72 94.3854 192.294C94.4995 192.867 94.7811 193.394 95.1946 193.808C95.6081 194.221 96.135 194.503 96.7085 194.617C97.2821 194.731 97.8766 194.673 98.4169 194.449C98.9572 194.225 99.419 193.846 99.7438 193.36C100.069 192.873 100.242 192.302 100.242 191.717C100.241 190.933 99.9287 190.182 99.3745 189.628C98.8203 189.074 98.0691 188.762 97.2854 188.76Z" fill="white"/>
<path d="M127.626 203.601C129.414 203.601 130.863 202.151 130.863 200.364C130.863 198.576 129.414 197.127 127.626 197.127C125.839 197.127 124.389 198.576 124.389 200.364C124.389 202.151 125.839 203.601 127.626 203.601Z" fill="#DBDBDB"/>
<path d="M127.632 203.881C126.935 203.882 126.253 203.676 125.673 203.289C125.093 202.903 124.64 202.353 124.373 201.709C124.106 201.065 124.035 200.356 124.171 199.673C124.307 198.989 124.642 198.361 125.135 197.868C125.628 197.375 126.257 197.039 126.94 196.903C127.624 196.768 128.333 196.838 128.977 197.105C129.621 197.372 130.171 197.825 130.557 198.405C130.944 198.985 131.15 199.667 131.149 200.364C131.147 201.296 130.776 202.19 130.117 202.849C129.458 203.508 128.564 203.879 127.632 203.881ZM127.632 197.402C127.046 197.4 126.472 197.573 125.984 197.898C125.497 198.223 125.116 198.685 124.891 199.226C124.666 199.768 124.606 200.363 124.72 200.938C124.834 201.513 125.115 202.042 125.529 202.457C125.944 202.872 126.471 203.154 127.046 203.269C127.621 203.384 128.217 203.325 128.759 203.101C129.3 202.877 129.763 202.498 130.089 202.01C130.415 201.523 130.589 200.95 130.589 200.364C130.589 199.579 130.277 198.827 129.723 198.271C129.169 197.716 128.416 197.403 127.632 197.402Z" fill="white"/>
<path d="M154.361 180.814C156.148 180.814 157.597 179.365 157.597 177.578C157.597 175.79 156.148 174.341 154.361 174.341C152.573 174.341 151.124 175.79 151.124 177.578C151.124 179.365 152.573 180.814 154.361 180.814Z" fill="#DBDBDB"/>
<path d="M154.361 181.094C153.665 181.094 152.985 180.888 152.407 180.501C151.828 180.115 151.378 179.566 151.111 178.923C150.845 178.281 150.776 177.573 150.911 176.891C151.047 176.209 151.382 175.582 151.874 175.091C152.366 174.599 152.992 174.264 153.674 174.128C154.357 173.992 155.064 174.062 155.706 174.328C156.349 174.594 156.898 175.045 157.285 175.624C157.671 176.202 157.877 176.882 157.877 177.577C157.877 178.51 157.507 179.405 156.847 180.064C156.188 180.724 155.293 181.094 154.361 181.094ZM154.361 174.621C153.776 174.621 153.204 174.794 152.718 175.119C152.232 175.444 151.853 175.906 151.629 176.446C151.405 176.986 151.346 177.581 151.461 178.154C151.575 178.728 151.856 179.255 152.27 179.668C152.683 180.082 153.21 180.363 153.784 180.477C154.357 180.591 154.952 180.533 155.492 180.309C156.032 180.085 156.494 179.706 156.819 179.22C157.144 178.734 157.317 178.162 157.317 177.577C157.319 177.188 157.243 176.802 157.096 176.442C156.948 176.081 156.73 175.754 156.456 175.477C156.181 175.201 155.855 174.982 155.495 174.832C155.136 174.682 154.75 174.604 154.361 174.604V174.621Z" fill="white"/>
<path d="M191.601 174.822C193.388 174.822 194.837 173.373 194.837 171.585C194.837 169.798 193.388 168.349 191.601 168.349C189.813 168.349 188.364 169.798 188.364 171.585C188.364 173.373 189.813 174.822 191.601 174.822Z" fill="#DBDBDB"/>
<path d="M191.601 175.102C190.905 175.102 190.225 174.896 189.647 174.509C189.068 174.123 188.618 173.574 188.351 172.931C188.085 172.288 188.016 171.581 188.151 170.899C188.287 170.217 188.622 169.59 189.114 169.098C189.606 168.607 190.232 168.272 190.914 168.136C191.597 168 192.304 168.07 192.946 168.336C193.589 168.602 194.138 169.053 194.525 169.631C194.911 170.21 195.117 170.89 195.117 171.585C195.116 172.517 194.745 173.411 194.086 174.07C193.426 174.729 192.533 175.1 191.601 175.102ZM191.601 168.628C191.016 168.628 190.444 168.802 189.958 169.127C189.472 169.452 189.093 169.913 188.869 170.454C188.645 170.994 188.586 171.588 188.701 172.162C188.815 172.736 189.096 173.262 189.51 173.676C189.923 174.089 190.45 174.371 191.024 174.485C191.597 174.599 192.192 174.541 192.732 174.317C193.272 174.093 193.734 173.714 194.059 173.228C194.384 172.742 194.557 172.17 194.557 171.585C194.556 170.801 194.244 170.05 193.69 169.496C193.135 168.942 192.384 168.63 191.601 168.628Z" fill="white"/>
<path d="M219.466 156.454C221.254 156.454 222.703 155.005 222.703 153.217C222.703 151.43 221.254 149.98 219.466 149.98C217.678 149.98 216.229 151.43 216.229 153.217C216.229 155.005 217.678 156.454 219.466 156.454Z" fill="#DBDBDB"/>
<path d="M219.472 156.734C218.775 156.735 218.093 156.53 217.513 156.143C216.933 155.756 216.48 155.206 216.213 154.562C215.946 153.919 215.876 153.21 216.011 152.526C216.147 151.842 216.483 151.214 216.976 150.721C217.468 150.228 218.097 149.893 218.78 149.757C219.464 149.621 220.173 149.691 220.817 149.959C221.461 150.226 222.011 150.678 222.397 151.258C222.784 151.839 222.99 152.52 222.989 153.217C222.987 154.15 222.616 155.043 221.957 155.703C221.298 156.362 220.404 156.733 219.472 156.734ZM219.472 150.255C218.886 150.254 218.312 150.427 217.825 150.752C217.337 151.076 216.956 151.539 216.731 152.08C216.506 152.621 216.446 153.217 216.56 153.792C216.674 154.367 216.955 154.895 217.37 155.31C217.784 155.725 218.311 156.008 218.886 156.123C219.461 156.237 220.057 156.179 220.599 155.955C221.14 155.731 221.603 155.351 221.929 154.864C222.255 154.377 222.429 153.804 222.429 153.217C222.429 152.433 222.117 151.68 221.563 151.125C221.009 150.569 220.257 150.257 219.472 150.255Z" fill="white"/>
<path d="M232.464 127.004C234.251 127.004 235.7 125.555 235.7 123.767C235.7 121.979 234.251 120.53 232.464 120.53C230.676 120.53 229.227 121.979 229.227 123.767C229.227 125.555 230.676 127.004 232.464 127.004Z" fill="#DBDBDB"/>
<path d="M232.464 127.284C231.767 127.284 231.086 127.077 230.506 126.69C229.927 126.303 229.475 125.752 229.209 125.108C228.943 124.464 228.873 123.756 229.01 123.072C229.146 122.389 229.482 121.761 229.975 121.269C230.468 120.777 231.096 120.442 231.78 120.306C232.464 120.171 233.172 120.242 233.816 120.509C234.459 120.776 235.009 121.229 235.395 121.809C235.782 122.389 235.987 123.07 235.986 123.767C235.985 124.7 235.613 125.595 234.953 126.254C234.292 126.914 233.397 127.284 232.464 127.284ZM232.464 120.805C231.878 120.805 231.305 120.979 230.818 121.304C230.331 121.63 229.951 122.092 229.727 122.634C229.503 123.175 229.444 123.771 229.558 124.345C229.673 124.92 229.955 125.448 230.369 125.862C230.783 126.276 231.311 126.558 231.886 126.673C232.461 126.787 233.056 126.728 233.597 126.504C234.139 126.28 234.601 125.9 234.927 125.413C235.252 124.926 235.426 124.353 235.426 123.767C235.426 123.378 235.35 122.993 235.201 122.634C235.052 122.274 234.834 121.948 234.559 121.673C234.283 121.397 233.957 121.179 233.597 121.03C233.238 120.881 232.853 120.805 232.464 120.805Z" fill="white"/>
<path d="M75.3363 57.9182C82.5663 50.6882 82.5663 38.9661 75.3363 31.7361C68.1063 24.506 56.3841 24.506 49.1541 31.7361C41.9241 38.9661 41.9241 50.6882 49.1541 57.9182C56.3841 65.1483 68.1063 65.1483 75.3363 57.9182Z" fill="#DBDBDB"/>
<path d="M205.797 63.6732L254.858 63.6004C254.858 63.6004 252.411 60.4252 249.723 60.0332C249.723 60.0332 244.47 44.4708 235.723 44.3532C227.581 44.2636 224.333 53.946 224.333 53.946C224.333 53.946 220.553 49.6116 216.952 51.6052C213.351 53.5988 211.324 59.2828 211.324 59.2828C211.324 59.2828 207.264 61.4836 205.797 63.6732Z" fill="#EBEBEB"/>
<path d="M119.691 119.758L57.6318 119.853C57.6318 119.853 57.6318 115.888 66.1718 115.104C66.1718 115.104 73.9502 97.7439 85.867 100.074C93.287 101.513 97.095 111.694 97.095 111.694C97.095 111.694 102.695 103.669 107.175 105.214C111.655 106.76 114.337 115.294 114.337 115.294C114.337 115.294 118.985 117.518 119.691 119.758Z" fill="#EBEBEB"/>
<path d="M216.224 102.084L174.039 102.151C174.039 102.151 178.032 98.4439 179.784 98.4439C181.537 98.4439 186.695 85.9951 193.297 86.5159C199.9 87.0367 203.411 96.2935 203.411 96.2935C203.411 96.2935 211.43 93.7567 216.224 102.084Z" fill="#EBEBEB"/>
<path d="M62.2461 63.287L26.1653 63.343C26.1653 63.343 27.9573 61.0078 29.9341 60.711C29.9341 60.711 33.7645 49.2534 40.2045 49.1638C46.1853 49.0798 48.6045 56.1918 48.6045 56.1918C48.6045 56.1918 51.3709 52.9942 54.0253 54.4502C56.6797 55.9062 58.1917 60.0838 58.1917 60.0838C58.1917 60.0838 61.1597 61.6854 62.2461 63.287Z" fill="#EBEBEB"/>
<path d="M186.908 182.325H173.328L175.304 160.844H184.931L186.908 182.325Z" fill="#FFCF73"/>
<path d="M43.0269 261.402H237.996L221.381 235.318L208.86 227.713L188.436 182.213H145.568L140.82 190.803L137.583 191.01L128.785 202.356H83.0725L73.4461 215.673L62.9069 222.628L43.0269 261.402Z" fill="#37474F"/>
<path d="M198.813 205.324H198.808L185.597 193.447L175.4 205.425L166.585 193.447L151.213 219.627L142.091 203.868L134.984 217.835L129.491 212.582L121.259 232.277L109.964 213.058L103.815 221.805L96.7868 212.94L83.7724 225.591L73.446 215.668L83.0724 202.356H128.785L137.583 191.011L140.82 190.798L145.574 182.219H188.436L198.813 205.324Z" fill="#EBEBEB"/>
<path d="M195.347 226.515L198.449 242.284L212.444 249.609L195.347 226.515Z" fill="#263238"/>
<path d="M66.1829 257.802L76.7221 247.375L78.1165 237.133L66.1829 257.802Z" fill="#263238"/>
<path d="M111.744 258.547L127.363 222.595L127.626 248.876L111.744 258.547Z" fill="#263238"/>
<path d="M185.665 213.438L193.236 230.49L186.908 222.594L185.665 213.438Z" fill="#263238"/>
<path d="M178.67 183.563C177.5 183.944 144.236 183.512 142.981 182.689C142.5 182.387 142.281 177.532 142.181 171.663V171.484C142.181 170.274 142.141 169.025 142.141 167.765C142.141 167.592 142.141 167.418 142.141 167.244L143.749 149.963L166.003 150.187L163.808 167.323L163.78 168L163.645 171.534V171.898C163.645 171.898 176.301 177.761 177.589 178.808C178.877 179.856 179.835 183.182 178.67 183.563Z" fill="#DD6A57"/>
<path d="M178.67 183.564C177.5 183.944 144.236 183.513 142.981 182.69C142.5 182.388 142.281 177.532 142.181 171.664V171.484C142.181 170.275 142.141 169.026 142.141 167.766C142.141 167.592 142.141 167.419 142.141 167.245L163.813 167.307L163.785 167.984L163.651 171.518V171.882C163.651 171.882 176.307 177.745 177.595 178.792C178.883 179.84 179.835 183.183 178.67 183.564Z" fill="#EBEBEB"/>
<path d="M178.67 183.564C178.071 183.754 169.033 183.737 160.19 183.564C158.415 183.53 156.645 183.485 154.965 183.44C148.665 183.267 143.457 183.009 142.976 182.696C142.494 182.382 142.276 177.656 142.181 171.916C142.181 171.832 142.181 171.753 142.181 171.669C142.181 171.585 142.181 171.546 142.181 171.484H142.192L163.629 171.524V171.888C163.629 171.888 176.29 177.745 177.573 178.798C178.855 179.851 179.835 183.183 178.67 183.564Z" fill="#455A64"/>
<path d="M178.312 182.259C172.712 182.052 150.077 181.732 144.516 181.945C144.471 181.945 144.471 181.979 144.516 181.984C150.071 182.315 172.701 182.449 178.306 182.354C178.429 182.348 178.429 182.264 178.312 182.259Z" fill="#263238"/>
<path d="M166.037 171.602C163.83 171.159 161.131 171.467 159.423 173.013C159.356 173.074 159.423 173.17 159.513 173.147C161.63 172.492 163.811 172.067 166.02 171.882C166.057 171.884 166.093 171.871 166.121 171.847C166.149 171.822 166.166 171.787 166.168 171.75C166.17 171.713 166.158 171.676 166.133 171.649C166.109 171.621 166.074 171.604 166.037 171.602Z" fill="#263238"/>
<path d="M167.616 172.581C165.415 172.139 162.71 172.447 161.002 173.992C160.935 174.054 161.002 174.149 161.097 174.127C163.214 173.47 165.396 173.046 167.605 172.861C167.642 172.863 167.678 172.849 167.705 172.824C167.733 172.799 167.749 172.764 167.75 172.727C167.752 172.69 167.738 172.653 167.713 172.626C167.688 172.599 167.653 172.583 167.616 172.581Z" fill="#263238"/>
<path d="M169.195 173.561C166.994 173.119 164.289 173.427 162.581 174.978C162.52 175.034 162.581 175.129 162.677 175.107C164.795 174.456 166.976 174.031 169.184 173.841C169.221 173.843 169.257 173.83 169.284 173.804C169.312 173.779 169.328 173.744 169.329 173.707C169.331 173.67 169.318 173.634 169.292 173.606C169.267 173.579 169.232 173.563 169.195 173.561Z" fill="#263238"/>
<path d="M165.107 171.585H139C139 171.585 144.667 120.065 144.482 119.079C144.387 118.575 139.694 111.486 134.117 103.198C130.998 98.5552 127.604 93.5432 124.597 89.0912C119.607 81.744 115.637 75.9424 115.637 75.9424H141.201C141.201 75.9424 144.639 80.0976 149.147 85.972C155.531 94.2992 164.054 106.076 167.958 114.414C170.982 120.888 165.107 171.585 165.107 171.585Z" fill="#263238"/>
<path d="M163.573 117.858C163.091 114.991 161.657 112.477 160.241 109.985C156.326 103.354 152.025 96.9594 147.361 90.8328C146.894 90.2467 146.424 89.6587 145.949 89.0688C145.921 89.0296 145.854 89.0688 145.888 89.1136C150.432 95.1877 154.661 101.492 158.555 108.002C160.005 110.5 161.629 113.042 162.559 115.77C163.545 118.67 163.405 121.75 163.253 124.769C162.94 130.996 162.567 137.218 162.133 143.434C161.689 149.724 161.183 156.006 160.616 162.278C160.549 163.045 160.476 163.812 160.409 164.585C160.409 164.831 160.627 164.854 160.649 164.585C161.254 158.335 161.915 152.142 162.385 145.875C162.856 139.609 163.265 133.27 163.601 126.958C163.763 123.957 164.082 120.843 163.573 117.858Z" fill="#455A64"/>
<path d="M164.032 167.497C160.375 167.419 161.428 167.391 157.765 167.357C155.973 167.357 144.208 167.234 142.534 167.514C142.5 167.514 142.5 167.581 142.534 167.587C144.214 167.861 155.973 167.76 157.765 167.743C161.428 167.71 160.375 167.676 164.032 167.603C164.04 167.606 164.049 167.607 164.058 167.606C164.067 167.604 164.075 167.601 164.082 167.596C164.089 167.59 164.095 167.584 164.099 167.576C164.103 167.568 164.105 167.559 164.105 167.55C164.105 167.541 164.103 167.533 164.099 167.525C164.095 167.517 164.089 167.51 164.082 167.505C164.075 167.5 164.067 167.496 164.058 167.495C164.049 167.494 164.04 167.494 164.032 167.497Z" fill="#455A64"/>
<path d="M142.332 115.562C135.645 105.242 115.631 75.9424 115.631 75.9424H129.026L142.332 115.562Z" fill="#37474F"/>
<path d="M88.0231 205.403C89.1935 205.767 122.452 205 123.701 204.166C124.177 203.852 124.35 199.002 124.384 193.134V192.949C124.384 191.739 127.184 171.411 127.184 171.411L105.445 171.854L102.93 193.206V193.57C102.93 193.57 90.3303 199.562 89.0535 200.621C87.7767 201.679 86.8527 205.067 88.0231 205.403Z" fill="#DD6A57"/>
<path d="M88.023 205.403C89.1934 205.767 122.452 205 123.701 204.166C124.177 203.852 124.35 199.003 124.384 193.134V192.949C124.384 192.949 124.871 188.878 124.871 188.704L103.406 189.085L102.925 193.207V193.571C102.925 193.571 90.3246 199.562 89.0478 200.621C87.771 201.679 86.8526 205.067 88.023 205.403Z" fill="#EBEBEB"/>
<path d="M88.023 205.404C89.1934 205.768 122.452 205 123.701 204.166C124.177 203.852 124.35 199.003 124.384 193.134V192.949L102.925 193.207V193.571C102.925 193.571 90.3246 199.563 89.0478 200.621C87.771 201.68 86.8526 205.068 88.023 205.404Z" fill="#455A64"/>
<path d="M88.3702 204.127C93.9702 203.864 116.6 203.309 122.155 203.472C122.2 203.472 122.205 203.505 122.155 203.505C116.611 203.892 93.9814 204.261 88.3702 204.222C88.2526 204.222 88.2526 204.132 88.3702 204.127Z" fill="#263238"/>
<path d="M100.534 193.347C102.734 192.882 105.439 193.162 107.158 194.691C107.226 194.752 107.158 194.848 107.069 194.825C104.945 194.197 102.76 193.8 100.55 193.644C100.531 193.645 100.511 193.642 100.493 193.636C100.474 193.629 100.458 193.619 100.443 193.606C100.428 193.593 100.417 193.577 100.408 193.56C100.4 193.542 100.395 193.523 100.394 193.504C100.392 193.484 100.395 193.465 100.402 193.446C100.408 193.428 100.418 193.411 100.431 193.396C100.444 193.382 100.46 193.37 100.477 193.361C100.495 193.353 100.514 193.348 100.534 193.347Z" fill="#263238"/>
<path d="M98.9653 194.343C101.161 193.878 103.865 194.153 105.59 195.687C105.657 195.749 105.59 195.844 105.501 195.821C103.377 195.188 101.192 194.786 98.9821 194.623C98.9638 194.624 98.9453 194.622 98.9279 194.615C98.9105 194.609 98.8945 194.6 98.8807 194.588C98.8669 194.576 98.8557 194.561 98.8476 194.544C98.8396 194.528 98.8349 194.51 98.8337 194.491C98.8326 194.473 98.8352 194.455 98.8412 194.437C98.8472 194.42 98.8566 194.404 98.8688 194.39C98.881 194.376 98.8958 194.365 98.9124 194.357C98.929 194.349 98.947 194.344 98.9653 194.343Z" fill="#263238"/>
<path d="M97.3918 195.323C99.587 194.859 102.292 195.133 104.017 196.667C104.084 196.729 104.017 196.824 103.921 196.802C101.794 196.172 99.6047 195.776 97.3918 195.62C97.3524 195.62 97.3147 195.605 97.2869 195.577C97.259 195.549 97.2434 195.511 97.2434 195.472C97.2434 195.432 97.259 195.395 97.2869 195.367C97.3147 195.339 97.3524 195.323 97.3918 195.323Z" fill="#263238"/>
<path d="M141.195 75.9424C141.195 75.9424 138.132 94.6128 137.925 95.212C137.925 95.212 136.805 95.772 134.727 96.7016L125.655 193.52L101.704 193.643L115.054 75.9704L141.195 75.9424Z" fill="#263238"/>
<path d="M124.832 189.258C121.169 189.197 122.222 189.163 118.56 189.146C116.773 189.146 105.002 189.085 103.333 189.365C103.323 189.365 103.313 189.369 103.306 189.376C103.298 189.384 103.294 189.394 103.294 189.404C103.294 189.414 103.298 189.424 103.306 189.432C103.313 189.439 103.323 189.443 103.333 189.443C105.013 189.712 116.773 189.561 118.565 189.533C122.222 189.482 121.169 189.46 124.832 189.365C124.843 189.361 124.853 189.354 124.86 189.344C124.867 189.335 124.87 189.323 124.87 189.312C124.87 189.3 124.867 189.288 124.86 189.279C124.853 189.269 124.843 189.262 124.832 189.258Z" fill="#455A64"/>
<path d="M120.469 89.483C119.54 102.817 119.142 108.764 118.05 122.092C116.958 135.42 115.659 148.821 114.046 162.143C113.145 169.585 112.165 180.063 111.084 187.483C111.084 187.533 111.157 187.55 111.162 187.483C113.402 174.301 114.97 157.954 116.32 144.66C117.669 131.365 118.739 118.032 119.68 104.698C120.24 97.155 120.128 97.0038 120.632 89.4606C120.643 89.3822 120.481 89.3878 120.469 89.483Z" fill="#455A64"/>
<path d="M138.916 94.6352C136.536 95.6302 134.246 96.8293 132.073 98.2192C131.983 98.2752 132.073 98.4096 132.14 98.3648C134.453 97.2448 136.81 96.1584 139.056 94.9096C139.085 94.8872 139.105 94.8555 139.113 94.8198C139.121 94.7842 139.116 94.747 139.099 94.7144C139.083 94.6819 139.055 94.6562 139.022 94.6418C138.988 94.6273 138.951 94.625 138.916 94.6352Z" fill="#455A64"/>
<path d="M138.037 83.9394C137.661 86.1794 137.449 88.4194 137.197 90.693C137.141 91.253 137.073 91.7738 137.017 92.3114C137.002 92.81 136.868 93.2977 136.625 93.7338C136.144 94.4898 135.27 94.8538 134.486 95.1842C134.391 95.2234 134.43 95.369 134.531 95.3354C135.379 95.1333 136.161 94.719 136.805 94.1314C137.527 93.3754 137.505 92.2218 137.611 91.2474C137.928 88.8331 138.104 86.4023 138.137 83.9674C138.137 83.8834 138.048 83.8834 138.037 83.9394Z" fill="#455A64"/>
<path d="M135.321 84.6223C135.242 86.2351 135.063 87.8423 134.929 89.4495C134.861 90.2391 134.805 91.0343 134.755 91.8295C134.705 92.6247 134.615 93.4647 134.637 94.2711C134.637 94.3271 134.727 94.3383 134.738 94.2711C134.867 93.5039 134.889 92.7087 134.951 91.9359C135.013 91.1631 135.074 90.3119 135.119 89.4943C135.209 87.8703 135.253 86.2351 135.399 84.6111C135.405 84.5719 135.321 84.5719 135.321 84.6223Z" fill="#455A64"/>
<path d="M149.142 85.9716L139.325 87.2428L124.585 89.1132L113.385 90.5356L115.037 75.9756H141.178C141.178 75.9756 144.634 80.0972 149.142 85.9716Z" fill="#263238"/>
<path d="M122.351 50.3785C112.327 52.6745 98.8311 51.3529 95.4151 47.1305C92.2343 43.1769 92.2119 25.4417 95.1239 17.1425C95.7567 15.3337 109.124 19.6961 108.754 21.7121C107.875 26.4273 106.301 37.0729 107.769 38.8985C109.073 40.5225 116.885 42.6785 124.132 44.2073C132.935 46.0609 126.344 49.4657 122.351 50.3785Z" fill="#DD6A57"/>
<path d="M96.5798 10.333C95.0398 13.133 94.1438 20.1218 94.575 21.8858C95.0062 23.6498 106.817 25.5762 108.183 24.2994C109.549 23.0226 113.99 13.1666 113.425 9.96343C112.859 6.76023 98.1702 7.42103 96.5798 10.333Z" fill="#DD6A57"/>
<path d="M113.301 15.0706C111.834 15.9218 111.666 13.7042 111.666 13.7042C111.666 13.7042 111.106 16.9578 109.281 17.249C107.455 17.5402 107.393 14.841 107.382 14.6506C107.354 14.8186 106.783 17.7922 104.89 17.8986C102.997 18.005 103.283 15.289 103.305 15.0986C103.227 15.2498 102.152 17.2602 100.696 17.0082C98.1926 16.5826 100.808 11.369 100.08 9.44822C100.08 9.44822 96.6806 10.3106 96.5798 10.3162C96.5798 10.3162 98.9654 5.30422 101.62 4.46422C102.003 4.33783 102.418 4.34547 102.797 4.48588C103.175 4.62629 103.495 4.89115 103.703 5.23702C103.703 5.23702 104.291 3.55702 105.781 3.40582C106.542 3.34422 107.326 4.52582 107.326 4.52582C107.48 4.15443 107.73 3.83109 108.051 3.58971C108.372 3.34832 108.752 3.19777 109.152 3.15382C110.216 3.12582 110.832 4.27382 110.832 4.27382C110.832 4.27382 111.952 3.22102 113.033 3.54582C115.261 4.21222 116.432 13.245 113.301 15.0706Z" fill="#DD6A57"/>
<path d="M110.983 4.46998C110.983 4.43638 111.017 4.42518 111.028 4.46998C112.195 7.45524 112.425 10.725 111.689 13.8444C111.689 13.9396 111.493 13.9396 111.498 13.8444C111.784 10.7112 111.611 7.55297 110.983 4.46998Z" fill="#263238"/>
<path d="M107.326 4.48103C107.326 4.44743 107.377 4.43063 107.393 4.48103C108.642 7.78009 108.67 11.4169 107.472 14.7346C107.427 14.8522 107.27 14.9082 107.315 14.7738C108.032 12.4778 107.959 7.35383 107.326 4.48103Z" fill="#263238"/>
<path d="M103.132 15.317C104.252 12.0578 104.252 8.75938 103.748 5.37138C103.748 5.33218 103.804 5.32658 103.821 5.37138C104.515 6.96178 104.616 9.15138 104.549 10.8594C104.514 12.4494 104.067 14.003 103.249 15.3674C103.216 15.4066 103.109 15.3842 103.132 15.317Z" fill="#263238"/>
<path d="M111.666 13.7041C111.51 14.3189 111.294 14.9172 111.022 15.4905C110.784 16.0601 110.397 16.5553 109.902 16.9241C109.669 17.0816 109.385 17.1456 109.107 17.1033C108.824 17.062 108.557 16.946 108.334 16.7673C108.125 16.5741 107.96 16.3391 107.848 16.0776C107.736 15.8162 107.68 15.5341 107.685 15.2497L107.657 13.8833L107.203 15.2049C107.008 15.7832 106.721 16.326 106.352 16.8121C106.191 17.0499 105.983 17.2515 105.74 17.4039C105.497 17.5563 105.225 17.6561 104.941 17.6969C104.676 17.7297 104.409 17.6708 104.182 17.5302C103.956 17.3896 103.785 17.1757 103.697 16.9241C103.509 16.3576 103.468 15.7523 103.58 15.1657L103.837 13.5361L103.059 15.0033C102.847 15.4087 102.583 15.7852 102.275 16.1233C101.996 16.4568 101.623 16.6987 101.205 16.8177C101.016 16.8637 100.818 16.8561 100.633 16.7957C100.448 16.7354 100.284 16.6247 100.158 16.4761C99.925 16.0997 99.8045 15.6644 99.811 15.2217C99.8132 14.267 99.8899 13.314 100.041 12.3713C100.097 11.8953 100.158 11.4137 100.192 10.9321C100.256 10.448 100.218 9.95576 100.08 9.4873C100.169 9.95908 100.169 10.4435 100.08 10.9153C100.007 11.3913 99.9118 11.8617 99.8166 12.3321C99.5967 13.2847 99.4673 14.256 99.4302 15.2329C99.4019 15.7616 99.5283 16.287 99.7942 16.7449C99.9681 16.9754 100.205 17.1509 100.476 17.2502C100.747 17.3496 101.041 17.3685 101.323 17.3049C101.845 17.1704 102.314 16.8839 102.673 16.4817C103.023 16.1116 103.325 15.6975 103.569 15.2497L103.053 15.0705C102.909 15.7628 102.948 16.4808 103.165 17.1537C103.3 17.5214 103.557 17.8317 103.893 18.0329C104.234 18.2238 104.625 18.304 105.013 18.2625C105.373 18.2131 105.719 18.0876 106.027 17.8946C106.335 17.7015 106.598 17.4451 106.8 17.1425C107.202 16.5941 107.51 15.9829 107.713 15.3337L107.225 15.2609C107.234 15.6141 107.319 15.9612 107.474 16.2783C107.63 16.5954 107.853 16.875 108.127 17.0977C108.416 17.3033 108.754 17.4289 109.107 17.4617C109.465 17.4981 109.824 17.4003 110.115 17.1873C110.633 16.7642 111.022 16.2031 111.235 15.5689C111.448 14.9654 111.593 14.3399 111.666 13.7041Z" fill="#263238"/>
<path d="M109.236 22.754C109.236 22.754 119.926 14.354 114.595 11.7892C113.016 11.0276 105.602 9.77882 105.322 11.2628C104.958 13.178 107.959 14.2756 109.947 14.6676C109.947 14.6676 105.91 17.0084 106.705 20.3068C106.859 20.9089 107.177 21.4565 107.624 21.8885C108.071 22.3205 108.629 22.6201 109.236 22.754Z" fill="#DD6A57"/>
<path d="M115.026 12.03C114.443 11.656 113.806 11.371 113.139 11.1844C112.475 10.9771 111.798 10.8162 111.112 10.7028C109.743 10.4491 108.354 10.316 106.962 10.3052C106.583 10.2991 106.206 10.3501 105.842 10.4564C105.635 10.5125 105.443 10.616 105.282 10.7588C105.193 10.8333 105.118 10.9246 105.064 11.0276C105.006 11.1282 104.966 11.2381 104.946 11.3524C104.874 11.764 104.954 12.1877 105.17 12.5452C105.372 12.8682 105.628 13.1543 105.926 13.3908C106.499 13.8267 107.143 14.1602 107.83 14.3764C108.495 14.6035 109.177 14.7795 109.869 14.9028L109.796 14.4548C109.366 14.743 108.963 15.0691 108.592 15.4292C108.202 15.7883 107.849 16.1861 107.539 16.6164C107.236 17.0486 106.997 17.5219 106.828 18.022C106.661 18.5192 106.592 19.0442 106.626 19.5676C106.662 19.0564 106.783 18.5549 106.985 18.0836C107.192 17.6199 107.461 17.1866 107.785 16.7956C108.101 16.4024 108.458 16.0438 108.849 15.726C109.234 15.4052 109.648 15.1221 110.087 14.8804L110.647 14.5836L109.997 14.4436C109.33 14.3021 108.673 14.115 108.032 13.8836C107.426 13.66 106.859 13.3425 106.352 12.9428C106.104 12.7857 105.902 12.5666 105.766 12.3072C105.629 12.0479 105.563 11.7573 105.573 11.4644C105.624 10.9996 106.369 10.9044 107.013 10.8484C107.657 10.7924 108.362 10.8484 109.045 10.8876C109.729 10.9268 110.412 10.9772 111.089 11.0612C112.444 11.1778 113.772 11.5047 115.026 12.03Z" fill="#263238"/>
<path d="M125.638 44.4648C121.321 43.1096 109.325 40.976 108.278 38.6128C107.231 36.2496 108.838 24.6128 108.838 24.6128L91.5119 22.2832C91.5119 22.2832 89.8711 42.0624 95.2471 47.9424C100.623 53.8224 115.317 52.596 121.069 51.3584C126.82 50.1208 132.823 46.7272 125.638 44.4648Z" fill="#FFCF73"/>
<path d="M91.5119 22.2832C91.5119 22.2832 89.8711 42.068 95.2471 47.9424C95.4834 48.2047 95.7399 48.4481 96.0143 48.6704C101.9 53.7104 117.373 53.8056 122.894 52.624C126.573 51.8288 128.539 48.9112 128.909 47.22C129.127 46.268 128.248 45.3104 125.655 44.4928C121.337 43.1432 109.342 41.004 108.295 38.6408C107.248 36.2776 108.855 24.6408 108.855 24.6408L91.5119 22.2832Z" fill="#FFCF73"/>
<g opacity="0.1">
<path opacity="0.1" d="M128.461 45.9207V48.3567C128.253 48.7715 128.005 49.1653 127.722 49.5327C127.599 49.6963 127.468 49.8533 127.33 50.0031V45.1367C127.75 45.3293 128.133 45.5947 128.461 45.9207Z" fill="black"/>
<path opacity="0.1" d="M125.482 44.4259V51.5547C125.325 51.6555 125.162 51.7451 124.994 51.8347V44.2803L125.482 44.4259Z" fill="black"/>
<path opacity="0.1" d="M123.152 43.7876V52.5236L122.883 52.5852C122.62 52.6412 122.323 52.6972 122.021 52.7476V43.502L123.152 43.7876Z" fill="black"/>
<path opacity="0.1" d="M120.173 43.0542V52.9998H120.117L119.686 53.039V42.959L120.173 43.0542Z" fill="black"/>
<path opacity="0.1" d="M117.838 42.4719V53.1623C117.468 53.1623 117.093 53.1903 116.718 53.1959V42.1807L117.479 42.3767L117.838 42.4719Z" fill="black"/>
<path opacity="0.1" d="M114.864 41.6761V53.2121C114.702 53.2121 114.539 53.2121 114.377 53.2121V41.5361L114.864 41.6761Z" fill="black"/>
<path opacity="0.1" d="M112.512 40.9647V53.1559C112.137 53.1559 111.761 53.1223 111.392 53.0943V40.5615C111.756 40.6959 112.131 40.8303 112.512 40.9647Z" fill="black"/>
<path opacity="0.1" d="M109.062 39.4365C109.219 39.5449 109.381 39.644 109.549 39.7333V52.9493L109.062 52.8989V39.4365Z" fill="black"/>
<path opacity="0.1" d="M107.22 24.4V52.6688C106.839 52.6184 106.464 52.5568 106.1 52.4952V24.2432L107.22 24.4Z" fill="black"/>
<path opacity="0.1" d="M104.241 23.991V52.1422L103.753 52.0302V23.9238L104.241 23.991Z" fill="black"/>
<path opacity="0.1" d="M101.911 23.6727V51.5495C101.525 51.4375 101.149 51.3143 100.791 51.1855V23.5215L101.911 23.6727Z" fill="black"/>
<path opacity="0.1" d="M98.9318 23.2693V50.4461C98.7638 50.3734 98.6014 50.2949 98.4446 50.2165V23.2021L98.9318 23.2693Z" fill="black"/>
<path opacity="0.1" d="M96.5968 22.9498V49.0962C96.3952 48.9562 96.1992 48.7994 96.0368 48.6426C95.8383 48.4882 95.6511 48.3198 95.4768 48.1386V22.793L96.5968 22.9498Z" fill="black"/>
<path opacity="0.1" d="M93.6232 22.5411V45.3107C93.5392 45.1147 93.4552 44.9187 93.3768 44.7115C93.2984 44.5043 93.248 44.3867 93.1976 44.2243C93.1721 44.1683 93.1515 44.1102 93.136 44.0507V22.4795L93.6232 22.5411Z" fill="black"/>
<path opacity="0.1" d="M91.2879 27.5527V30.4703C91.2879 29.9103 91.2879 29.3223 91.2879 28.7903C91.2879 28.6279 91.2879 28.4655 91.2879 28.3031C91.2823 28.0399 91.2823 27.7935 91.2879 27.5527Z" fill="black"/>
</g>
<g opacity="0.1">
<path opacity="0.1" d="M124.927 51.8684C124.362 52.1529 123.766 52.3727 123.152 52.5236L122.883 52.5852C122.62 52.6412 122.323 52.6972 122.02 52.7476C121.46 52.8372 120.85 52.9156 120.178 52.9828H110.098L109.538 52.9324L109.051 52.882C108.435 52.8204 107.819 52.742 107.208 52.6524C106.828 52.602 106.452 52.5404 106.088 52.4788C105.461 52.3742 104.845 52.2566 104.24 52.126L103.753 52.014L103.081 51.8516L124.927 51.8684Z" fill="black"/>
<path opacity="0.1" d="M127.722 49.5334C127.599 49.697 127.468 49.854 127.33 50.0038H98.0695C97.7783 49.847 97.5095 49.6902 97.2351 49.5166L127.722 49.5334Z" fill="black"/>
<path opacity="0.1" d="M128.892 47.1926C128.857 47.3605 128.808 47.5253 128.746 47.6854H95.0511C94.7555 47.336 94.4912 46.9612 94.2615 46.5654H128.869C128.933 46.7687 128.941 46.9854 128.892 47.1926Z" fill="black"/>
<path opacity="0.1" d="M125.638 44.471C125.885 44.5494 126.12 44.6278 126.338 44.7118H93.3767C93.3095 44.5494 93.2479 44.387 93.1975 44.2246H124.832L125.022 44.2806L125.51 44.4262L125.638 44.471Z" fill="black"/>
<path opacity="0.1" d="M117.468 42.3759H92.6318C92.531 42.0063 92.4414 41.6255 92.3574 41.2559H113.402C113.716 41.3567 114.041 41.4519 114.377 41.5471L114.864 41.6871C115.469 41.8607 116.085 42.0287 116.706 42.1911L117.468 42.3759Z" fill="black"/>
<path opacity="0.1" d="M109.012 39.4022H92.0047C92.0047 39.2398 91.9543 39.0774 91.9319 38.915H108.452C108.617 39.1007 108.805 39.2644 109.012 39.4022Z" fill="black"/>
<path opacity="0.1" d="M107.948 37.0673H91.7077C91.6685 36.6921 91.6293 36.3169 91.5957 35.9473H107.92C107.903 36.3449 107.92 36.7201 107.948 37.0673Z" fill="black"/>
<path opacity="0.1" d="M107.942 33.6006C107.942 33.763 107.942 33.9254 107.942 34.0878H91.4277C91.4277 33.9254 91.4277 33.763 91.4277 33.6006H107.942Z" fill="black"/>
<path opacity="0.1" d="M108.15 30.627C108.116 31.0022 108.082 31.3774 108.054 31.747H91.3215C91.3215 31.3662 91.3215 30.9854 91.3215 30.627H108.15Z" fill="black"/>
<path opacity="0.1" d="M108.373 28.292C108.373 28.4488 108.345 28.6112 108.329 28.7792H91.2766C91.2766 28.6168 91.2766 28.4544 91.2766 28.292H108.373Z" fill="black"/>
<path opacity="0.1" d="M108.738 25.3184C108.693 25.6152 108.642 26.0016 108.586 26.4384H91.3103C91.3103 26.0408 91.3103 25.66 91.3439 25.3184H108.738Z" fill="black"/>
<path opacity="0.1" d="M100.416 23.4706H91.4558C91.4558 23.2914 91.4558 23.1234 91.4558 22.9834H96.8318L98.4278 23.2018L98.915 23.269L100.416 23.4706Z" fill="black"/>
</g>
<path d="M92.755 25.9619C93.3822 25.9619 94.0038 26.0739 94.6254 26.1299C95.247 26.1859 95.8686 26.2699 96.4846 26.3539C97.6755 26.5182 98.8664 26.6936 100.057 26.8803L103.625 27.4403C104.857 27.6363 106.117 27.7707 107.326 28.0675C107.333 28.065 107.34 28.0642 107.347 28.0651C107.355 28.066 107.361 28.0686 107.367 28.0727C107.373 28.0769 107.378 28.0824 107.381 28.0888C107.385 28.0952 107.387 28.1023 107.387 28.1095C107.387 28.1167 107.385 28.1239 107.381 28.1303C107.378 28.1367 107.373 28.1422 107.367 28.1463C107.361 28.1504 107.355 28.1531 107.347 28.154C107.34 28.1549 107.333 28.154 107.326 28.1515C106.083 28.0899 104.834 27.8659 103.602 27.7035C102.37 27.5411 101.172 27.3899 99.9566 27.2219C98.7414 27.0539 97.5262 26.8915 96.311 26.7011C95.7174 26.6115 95.1238 26.5107 94.5358 26.3931C93.9478 26.2755 93.3262 26.2139 92.7494 26.0403C92.6878 26.0235 92.7158 25.9619 92.755 25.9619Z" fill="#263238"/>
<path d="M134.111 50.0875C139.739 58.6947 150.39 67.1171 155.766 66.4339C160.806 65.7899 173.126 53.0331 176.777 45.0363C177.578 43.2947 164.922 37.1627 163.797 38.8763C161.153 42.8803 154.904 51.6443 152.597 51.9411C150.53 52.2043 143.407 48.3347 137.129 44.4091C129.485 39.6435 131.871 46.6547 134.111 50.0875Z" fill="#DD6A57"/>
<path d="M175.792 46.1781C174.358 47.2981 163.959 41.4573 163.685 39.6149C163.652 38.9933 163.701 38.3701 163.83 37.7613C163.291 35.2387 162.385 32.8087 161.142 30.5485C159.574 27.9053 156.937 24.1589 158.342 23.2685C160.364 21.9525 164.267 26.2869 166.356 28.9133C167.039 27.2333 167.789 25.8333 168.523 25.1837C170.959 23.0277 181.963 32.6821 181.403 35.9413C180.86 39.0829 177.231 45.0693 175.792 46.1781Z" fill="#DD6A57"/>
<path d="M153.868 2.37526L153.098 2.84473L207.828 92.5775L208.598 92.108L153.868 2.37526Z" fill="#263238"/>
<path d="M165.432 29.2492C166.048 30.8228 167.549 29.1932 167.549 29.1932C167.549 29.1932 165.947 32.0604 167.213 33.438C168.478 34.8156 170.181 32.7324 170.304 32.5924C170.226 32.7436 168.82 35.3924 170.231 36.6692C171.642 37.946 173.104 35.6332 173.194 35.482C173.16 35.65 172.757 37.8844 174.045 38.5956C176.257 39.8108 177.455 34.1156 179.214 33.0796C179.214 33.0796 181.325 35.8796 181.403 35.93C181.482 35.9804 182.658 30.5428 181.112 28.2468C180.893 27.91 180.565 27.6581 180.183 27.5328C179.801 27.4075 179.388 27.4164 179.012 27.558C179.012 27.558 179.606 25.878 178.525 24.842C177.965 24.3212 176.638 24.7412 176.638 24.7412C176.752 24.3492 176.758 23.9333 176.653 23.5385C176.548 23.1437 176.338 22.785 176.044 22.5012C175.232 21.818 174.022 22.35 174.022 22.35C174.022 22.35 173.81 20.8436 172.757 20.418C170.634 19.5668 164.116 25.8724 165.432 29.2492Z" fill="#DD6A57"/>
<path d="M173.815 22.4232C173.815 22.4232 173.815 22.3672 173.815 22.3784C171.052 23.9812 168.843 26.3878 167.481 29.2776C167.442 29.3672 167.571 29.4736 167.638 29.3784C169.351 26.7742 171.431 24.4315 173.815 22.4232Z" fill="#263238"/>
<path d="M176.66 24.6966C176.688 24.6966 176.66 24.6295 176.615 24.6463C173.595 26.4473 171.317 29.2672 170.192 32.5982C170.158 32.7158 170.242 32.8559 170.293 32.7271C171.149 30.4983 174.386 26.5502 176.66 24.6966Z" fill="#263238"/>
<path d="M173.205 35.723C174.325 32.475 176.402 29.9158 178.894 27.5918C178.928 27.5918 178.894 27.519 178.85 27.5414C177.315 28.3422 175.882 29.9886 174.874 31.3662C173.905 32.6354 173.291 34.1388 173.093 35.723C173.082 35.7678 173.177 35.8126 173.205 35.723Z" fill="#263238"/>
<path d="M167.493 29.21C167.442 29.3164 167.661 29.266 167.616 29.378C167.425 29.854 166.524 32.8108 167.431 33.4324C168.165 33.9252 169.341 33.2868 169.671 32.8724L170.584 31.8028L170.119 33.1132C169.904 33.6907 169.786 34.3002 169.772 34.9164C169.748 35.2017 169.786 35.4887 169.883 35.7582C169.979 36.0277 170.132 36.2734 170.332 36.4788C170.517 36.6688 170.762 36.79 171.026 36.8226C171.289 36.8551 171.556 36.7971 171.782 36.658C172.279 36.3291 172.686 35.8804 172.964 35.3532L173.776 33.9252L173.473 35.5324C173.391 35.981 173.365 36.4381 173.395 36.8932C173.411 37.325 173.551 37.7431 173.798 38.0972C173.918 38.2498 174.078 38.3663 174.26 38.4335C174.441 38.5008 174.639 38.5161 174.829 38.478C175.243 38.3287 175.606 38.0645 175.876 37.7164C176.468 36.9708 177.001 36.1807 177.472 35.3532C177.724 34.9444 177.976 34.5356 178.25 34.1324C178.498 33.7153 178.832 33.3563 179.23 33.0796C178.872 33.3938 178.577 33.774 178.362 34.1996C178.122 34.614 177.903 35.0396 177.685 35.4708C177.263 36.348 176.76 37.1841 176.184 37.9684C175.878 38.3972 175.454 38.7279 174.963 38.9204C174.684 38.9952 174.389 38.9869 174.114 38.8963C173.84 38.8058 173.597 38.637 173.418 38.4108C173.088 37.9847 172.893 37.4699 172.858 36.9324C172.816 36.4276 172.838 35.9195 172.925 35.4204L173.44 35.5996C173.121 36.2274 172.644 36.7619 172.057 37.1508C171.724 37.361 171.326 37.4445 170.937 37.386C170.559 37.3248 170.209 37.1489 169.934 36.882C169.683 36.6208 169.49 36.3087 169.369 35.9667C169.249 35.6247 169.203 35.2608 169.234 34.8996C169.259 34.2235 169.393 33.5559 169.632 32.9228L170.058 33.1692C169.587 33.69 168.377 34.5468 167.123 33.9196C165.661 32.8724 167.173 29.7588 167.493 29.21Z" fill="#263238"/>
<path d="M167.549 29.1938C167.269 29.3996 166.959 29.562 166.63 29.6754C166.498 29.7223 166.356 29.7335 166.219 29.7079C166.081 29.6824 165.953 29.6209 165.846 29.5298C165.645 29.2939 165.514 29.0071 165.466 28.701C165.404 28.3706 165.348 28.0122 165.314 27.6426C165.163 27.9959 165.09 28.3782 165.102 28.7626C165.091 29.1773 165.244 29.5796 165.527 29.8826C165.7 30.0331 165.915 30.127 166.143 30.1514C166.358 30.1674 166.574 30.1228 166.765 30.0226C167.107 29.8359 167.381 29.5458 167.549 29.1938Z" fill="#263238"/>
<path d="M135.847 43.5634C139.896 45.5794 150.021 52.3666 152.423 51.4034C154.825 50.4402 161.725 40.9258 161.725 40.9258L175.831 51.2354C175.831 51.2354 163.293 66.6242 155.341 67.1226C147.389 67.621 137.661 56.5442 134.352 51.661C131.042 46.7778 129.105 40.2034 135.847 43.5634Z" fill="#FFCF73"/>
<g opacity="0.1">
<path opacity="0.1" d="M175.831 51.2237C175.831 51.2237 175.641 51.4589 175.271 51.8677L175.092 52.0805V50.6973L175.831 51.2237Z" fill="black"/>
<path opacity="0.1" d="M173.272 49.3535V54.1639L172.785 54.6959V48.9951L173.272 49.3535Z" fill="black"/>
<path opacity="0.1" d="M170.937 47.6455V56.6447L170.41 57.1767C170.216 57.3783 170.014 57.5799 169.805 57.7815V46.8223L170.937 47.6455Z" fill="black"/>
<path opacity="0.1" d="M167.952 45.4729V59.5457L167.465 59.9937V45.1201L167.952 45.4729Z" fill="black"/>
<path opacity="0.1" d="M165.628 43.7651V61.6123L164.553 62.4859C164.532 62.4976 164.513 62.5127 164.497 62.5307V42.9307L165.628 43.7651Z" fill="black"/>
<path opacity="0.1" d="M162.178 41.2446H162.161V41.2334L162.178 41.2446Z" fill="black"/>
<path opacity="0.1" d="M162.649 42.376V63.908L162.161 64.2384V42.3984L162.649 42.376Z" fill="black"/>
<path opacity="0.1" d="M160.319 42.8018V65.4034L160.174 65.4874C159.86 65.6591 159.546 65.8215 159.233 65.9746H159.188V44.2242H159.227L160.319 42.8018Z" fill="black"/>
<path opacity="0.1" d="M157.34 46.5703V66.7303C157.177 66.7863 157.015 66.8311 156.853 66.8703V47.1527L157.34 46.5703Z" fill="black"/>
<path opacity="0.1" d="M155.01 49.2246V67.1446C154.636 67.1543 154.262 67.1393 153.89 67.0998V50.3446L154.237 50.0198L154.725 49.5326L155.01 49.2246Z" fill="black"/>
<path opacity="0.1" d="M152.031 51.4755V66.7187C151.869 66.6795 151.706 66.6291 151.544 66.5731V51.4531C151.705 51.477 151.868 51.4845 152.031 51.4755Z" fill="black"/>
<path opacity="0.1" d="M149.696 50.966V65.8508C149.433 65.7276 149.175 65.5988 148.912 65.4644L148.565 65.2796V50.5068C148.962 50.6804 149.337 50.8428 149.696 50.966Z" fill="black"/>
<path opacity="0.1" d="M146.722 49.628V64.188L146.235 63.8576V49.376L146.538 49.5328L146.722 49.628Z" fill="black"/>
<path opacity="0.1" d="M144.387 48.3845V62.4685C144.006 62.1661 143.625 61.8525 143.267 61.5333V47.7461C143.631 47.9645 144.012 48.1773 144.387 48.3845Z" fill="black"/>
<path opacity="0.1" d="M141.413 46.6938V59.8706L140.926 59.4002V46.4082L141.173 46.5538L141.413 46.6938Z" fill="black"/>
<path opacity="0.1" d="M139.078 45.3378V57.4954L138.787 57.1762C138.496 56.8626 138.227 56.549 137.947 56.241V44.6826H137.997L139.078 45.3378Z" fill="black"/>
<path opacity="0.1" d="M136.099 43.6754V54.0074C135.925 53.7946 135.763 53.5818 135.612 53.3802V43.4346L135.847 43.5466L136.099 43.6754Z" fill="black"/>
<path opacity="0.1" d="M133.792 42.7507V50.7195C133.652 50.4899 133.512 50.2547 133.377 50.0195L133.109 49.5323C132.952 49.2411 132.801 48.9723 132.661 48.6587V42.6499C133.041 42.6134 133.424 42.6476 133.792 42.7507Z" fill="black"/>
</g>
<g opacity="0.1">
<path opacity="0.1" d="M160.173 65.4648C159.86 65.6366 159.546 65.799 159.233 65.952H149.914L149.696 65.8512C149.433 65.728 149.175 65.5992 148.912 65.4648H160.173Z" fill="black"/>
<path opacity="0.1" d="M164.553 62.4863C164.532 62.4981 164.513 62.5132 164.497 62.5311C164.021 62.9063 163.539 63.2703 163.057 63.6175H145.916C145.406 63.2591 144.902 62.8783 144.409 62.4975L164.553 62.4863Z" fill="black"/>
<path opacity="0.1" d="M167.302 60.1504L166.742 60.6376H142.242L141.716 60.1504H167.302Z" fill="black"/>
<path opacity="0.1" d="M170.41 57.1768C170.216 57.3784 170.015 57.58 169.806 57.7816L169.246 58.308H139.846C139.582 58.0392 139.33 57.748 139.078 57.496L138.787 57.1768H170.41Z" fill="black"/>
<path opacity="0.1" d="M172.65 54.8418L172.191 55.329H137.152C137.012 55.1666 136.877 54.9986 136.749 54.8418H172.65Z" fill="black"/>
<path opacity="0.1" d="M175.293 51.8682L175.114 52.081L174.313 52.9994H135.326C135.024 52.5962 134.766 52.2154 134.514 51.8794L175.293 51.8682Z" fill="black"/>
<path opacity="0.1" d="M147.517 50.0204H133.355L133.086 49.5332H146.526L146.711 49.6284L147.517 50.0204Z" fill="black"/>
<path opacity="0.1" d="M174.185 50.0204H154.226L154.714 49.5332H173.518L174.185 50.0204Z" fill="black"/>
<path opacity="0.1" d="M143.144 47.6854H132.196C132.035 47.3198 131.892 46.9459 131.77 46.5654H141.173L141.413 46.7054L143.144 47.6854Z" fill="black"/>
<path opacity="0.1" d="M170.987 47.6854H156.427L156.875 47.1254L157.362 46.5654H169.464L169.828 46.8342L170.948 47.6574L170.987 47.6854Z" fill="black"/>
<path opacity="0.1" d="M137.997 44.7118H131.361C131.348 44.5497 131.348 44.3867 131.361 44.2246H137.129C137.393 44.3646 137.689 44.5214 137.958 44.6838L137.997 44.7118Z" fill="black"/>
<path opacity="0.1" d="M166.921 44.7118H158.841L159.188 44.275V44.2246H166.272L166.921 44.7118Z" fill="black"/>
<path opacity="0.1" d="M162.161 41.2451V42.3651H160.638C161.008 41.8779 161.293 41.4859 161.484 41.2451H162.161Z" fill="black"/>
</g>
<path d="M172.365 53.0271C171.917 52.5959 171.39 52.2487 170.903 51.8567C170.416 51.4647 169.912 51.0951 169.408 50.7367C168.439 50.0255 167.453 49.3255 166.468 48.6367L163.511 46.5647C162.492 45.8535 161.484 45.0751 160.409 44.4479C160.399 44.4432 160.388 44.4421 160.378 44.4448C160.367 44.4475 160.358 44.4539 160.352 44.4627C160.346 44.4715 160.343 44.4821 160.344 44.4928C160.346 44.5034 160.35 44.5133 160.358 44.5207C161.299 45.3383 162.352 46.0383 163.349 46.7607L166.311 48.9447C167.302 49.6727 168.293 50.3895 169.296 51.1007C169.789 51.4479 170.287 51.7839 170.791 52.1143C171.295 52.4447 171.788 52.8199 172.325 53.0943C172.37 53.1223 172.398 53.0831 172.365 53.0271Z" fill="#263238"/>
<path d="M148.604 65.2972C142.562 62.0324 136.76 55.2172 134.369 51.6612C132.269 48.5364 130.706 44.7228 131.614 43.2612C131.978 42.6564 132.734 42.4436 134.094 42.8412L148.604 65.2972Z" fill="#263238"/>
<path d="M147.865 84.0174C147.383 84.6222 113.145 87.103 112.971 86.9014C112.456 86.3694 118.089 50.7814 125.229 44.151C126.769 42.7286 133.03 42.471 133.915 42.7566C134.912 43.059 137.992 47.5166 139.515 51.2182C142.567 58.627 148.279 83.4798 147.865 84.0174Z" fill="#FFCF73"/>
<g opacity="0.1">
<path opacity="0.1" d="M146.722 77.645V84.2586L146.235 84.3258V75.4834C146.28 75.6906 146.33 75.8978 146.375 76.0994C146.42 76.301 146.448 76.4298 146.482 76.5866C146.566 76.9394 146.672 77.2978 146.722 77.645Z" fill="black"/>
<path opacity="0.1" d="M143.928 65.9635C144.085 66.5627 144.236 67.1675 144.387 67.7667V84.5667L143.267 84.6843V63.4043C143.267 63.4827 143.312 63.5667 143.329 63.6451C143.493 64.2536 143.655 64.8696 143.816 65.4931C143.872 65.6275 143.872 65.7899 143.928 65.9635Z" fill="black"/>
<path opacity="0.1" d="M140.954 55.324C141.105 55.8 141.262 56.2984 141.413 56.8136V84.8136L141.105 84.8416H140.926V55.2344C140.939 55.2632 140.948 55.2933 140.954 55.324Z" fill="black"/>
<path opacity="0.1" d="M139.078 50.2335V85.0431L137.958 85.1383V48.0439C138.238 48.5367 138.518 49.0407 138.753 49.5391C138.836 49.7034 138.914 49.8658 138.989 50.0263C139.023 50.0935 139.053 50.1627 139.078 50.2335Z" fill="black"/>
<path opacity="0.1" d="M135.813 44.712C135.909 44.8408 136.004 44.9696 136.099 45.1096V85.3008L135.612 85.34V44.46L135.813 44.712Z" fill="black"/>
<path opacity="0.1" d="M133.792 42.7292V85.4908L132.672 85.5804V42.6564C133.047 42.6496 133.421 42.6739 133.792 42.7292Z" fill="black"/>
<path opacity="0.1" d="M130.79 42.7295V85.7263L130.303 85.7655V42.7687L130.79 42.7295Z" fill="black"/>
<path opacity="0.1" d="M128.461 43.0039V85.9055L127.341 85.9895V43.2391C127.688 43.1495 128.069 43.0711 128.461 43.0039Z" fill="black"/>
<path opacity="0.1" d="M125.482 43.9561V86.1241L124.994 86.1577V44.3817C125.046 44.3248 125.1 44.2706 125.157 44.2193C125.18 44.1936 125.204 44.1693 125.23 44.1465C125.308 44.076 125.392 44.0123 125.482 43.9561Z" fill="black"/>
<path opacity="0.1" d="M123.152 46.9238V86.2862L122.032 86.3646V49.1302C122.267 48.6206 122.508 48.139 122.743 47.6854C122.866 47.4278 123.006 47.1758 123.152 46.9238Z" fill="black"/>
<path opacity="0.1" d="M120.173 53.7168V86.5048L119.686 86.5384V55.1392L119.786 54.8424C119.91 54.4616 120.038 54.0864 120.173 53.7168Z" fill="black"/>
<path opacity="0.1" d="M117.837 61.3271V86.6839L117.205 86.7232L116.706 86.7568V65.4768H116.779C116.93 64.8608 117.081 64.2447 117.238 63.6287C117.333 63.2535 117.429 62.8727 117.529 62.5087C117.63 62.1447 117.731 61.7135 117.837 61.3271Z" fill="black"/>
<path opacity="0.1" d="M114.864 74.2627V86.8403L114.377 86.8683V76.7883C114.377 76.7099 114.377 76.6259 114.422 76.5419C114.466 76.4579 114.483 76.2171 114.511 76.0547C114.623 75.4835 114.752 74.8843 114.864 74.2627Z" fill="black"/>
</g>
<g opacity="0.1">
<path opacity="0.1" d="M117.205 86.6826L116.706 86.7162L114.864 86.8226L114.377 86.8506C113.909 86.8913 113.44 86.9026 112.971 86.8842C112.971 86.8842 112.971 86.7946 112.971 86.6826H117.205Z" fill="black"/>
<path opacity="0.1" d="M147.865 84.0173C147.505 84.1527 147.128 84.2338 146.745 84.2581L146.257 84.3253L144.409 84.5381L143.289 84.6557L141.447 84.8293L141.139 84.8573H113.072C113.111 84.5157 113.161 84.1405 113.223 83.7373H147.853C147.881 83.8282 147.885 83.9245 147.865 84.0173Z" fill="black"/>
<path opacity="0.1" d="M147.59 81.8778H113.514C113.514 81.721 113.565 81.5586 113.587 81.3906H147.501C147.534 81.5586 147.568 81.721 147.59 81.8778Z" fill="black"/>
<path opacity="0.1" d="M147.131 79.5487H113.889C113.957 79.1847 114.018 78.8039 114.091 78.4287H146.89C146.974 78.8095 147.058 79.1903 147.131 79.5487Z" fill="black"/>
<path opacity="0.1" d="M146.481 76.5692H114.421C114.449 76.4124 114.483 76.2444 114.511 76.082H146.375C146.414 76.25 146.448 76.4124 146.481 76.5692Z" fill="black"/>
<path opacity="0.1" d="M145.955 74.2343H114.869C114.942 73.8647 115.015 73.4839 115.093 73.1143H145.686C145.776 73.4839 145.865 73.8647 145.955 74.2343Z" fill="black"/>
<path opacity="0.1" d="M145.244 71.2606H115.474L115.575 70.7734H145.132C145.171 70.9358 145.21 71.0982 145.244 71.2606Z" fill="black"/>
<path opacity="0.1" d="M144.678 68.9257H115.978C116.062 68.5505 116.146 68.1753 116.236 67.8057H144.398C144.493 68.2033 144.583 68.5505 144.678 68.9257Z" fill="black"/>
<path opacity="0.1" d="M143.928 65.9628H116.661C116.661 65.9012 116.695 65.8396 116.706 65.7836V65.4756H143.805C143.872 65.6268 143.872 65.7892 143.928 65.9628Z" fill="black"/>
<path opacity="0.1" d="M143.312 63.6161H117.238C117.333 63.2409 117.428 62.8601 117.529 62.4961H143.015C143.099 62.7873 143.177 63.0897 143.256 63.3865C143.278 63.4537 143.312 63.5377 143.312 63.6161Z" fill="black"/>
<path opacity="0.1" d="M142.517 60.6376H118.028C118.065 60.4733 118.11 60.3109 118.162 60.1504H142.382C142.421 60.3128 142.472 60.4752 142.517 60.6376Z" fill="black"/>
<path opacity="0.1" d="M141.856 58.3075H118.672C118.784 57.9267 118.901 57.5459 119.019 57.1875H141.508L141.856 58.3075Z" fill="black"/>
<path opacity="0.1" d="M140.954 55.3231H119.624C119.641 55.2586 119.662 55.1951 119.685 55.1327L119.786 54.8359H140.803C140.842 54.9647 140.887 55.0935 140.926 55.2279C140.939 55.2586 140.948 55.2905 140.954 55.3231Z" fill="black"/>
<path opacity="0.1" d="M140.187 52.9989H120.43C120.57 52.6181 120.71 52.2373 120.861 51.8789H139.773C139.907 52.2149 140.041 52.5957 140.187 52.9989Z" fill="black"/>
<path opacity="0.1" d="M138.977 50.0194H121.617C121.685 49.8514 121.757 49.689 121.83 49.5322H138.742C138.828 49.6965 138.906 49.8589 138.977 50.0194Z" fill="black"/>
<path opacity="0.1" d="M137.745 47.6849H122.726C122.866 47.4273 123.006 47.1753 123.146 46.9345C123.219 46.8057 123.292 46.6769 123.37 46.5537H137.062C137.292 46.9233 137.521 47.2985 137.745 47.6849Z" fill="black"/>
<path opacity="0.1" d="M135.813 44.7108H124.692C124.792 44.5932 124.893 44.4868 124.994 44.386C125.045 44.3292 125.1 44.275 125.156 44.2236H135.472L135.64 44.4476L135.813 44.7108Z" fill="black"/>
</g>
<path d="M131.804 51.0112L133.17 48.1328L135.343 50.1936L135.007 52.4168L133.03 52.8144L131.804 51.0112Z" fill="#263238"/>
<path d="M133.03 52.8141C133.03 52.8141 133.685 67.0213 138.86 72.6941C143.95 78.2941 151.936 77.1237 151.936 77.1237L158.566 73.9989L153.095 70.0789C153.095 70.0789 147.053 70.0789 143.205 67.1165C139.358 64.1541 135.007 52.4053 135.007 52.4053L133.03 52.8141Z" fill="#263238"/>
<path d="M133.562 47.3653C131.81 48.1437 128.147 45.9261 126.484 43.8877C126.372 43.7477 126.305 42.0677 126.126 40.0237C126.014 38.7861 125.862 37.4085 125.627 36.1653C125.582 35.9077 133.798 36.6077 133.798 36.6077C133.64 38.2497 133.685 39.9048 133.932 41.5357C133.964 41.7063 134.012 41.8733 134.078 42.0341C134.089 42.0615 134.098 42.0896 134.106 42.1181C134.442 43.0589 135.254 46.6205 133.562 47.3653Z" fill="#DD6A57"/>
<path d="M134.106 42.1188C133.846 42.2037 133.58 42.2674 133.31 42.3092C129.194 43.0036 126.792 38.238 125.952 36.1156C127.425 36.0652 133.792 36.6084 133.792 36.6084C133.634 38.2504 133.679 39.9055 133.926 41.5364C133.958 41.707 134.007 41.874 134.072 42.0348C134.085 42.0621 134.096 42.0901 134.106 42.1188Z" fill="#263238"/>
<path d="M123.152 26.6003C122.592 29.5011 125.011 37.4195 127.212 38.9987C130.393 41.2835 135.147 40.9979 136.973 37.2739C138.748 33.6619 135.438 23.3971 133.053 22.0139C129.446 19.9699 123.913 22.3219 123.152 26.6003Z" fill="#DD6A57"/>
<path d="M130.37 30.9297C130.37 30.9297 130.337 30.9633 130.37 30.9857C130.544 31.5177 130.656 32.1505 130.225 32.4753C130.225 32.4753 130.225 32.5089 130.225 32.4753C130.779 32.2401 130.622 31.4001 130.37 30.9297Z" fill="#263238"/>
<path d="M129.732 30.51C128.853 30.7004 129.295 32.4476 130.113 32.2684C130.93 32.0892 130.465 30.3532 129.732 30.51Z" fill="#263238"/>
<path d="M133.629 29.9941C133.629 29.9941 133.674 29.9941 133.68 30.0277C133.803 30.5877 134.033 31.1477 134.565 31.2317V31.2653C133.954 31.3325 133.657 30.5261 133.629 29.9941Z" fill="#263238"/>
<path d="M133.965 29.3053C134.817 29.0197 135.332 30.7445 134.525 30.9853C133.719 31.2261 133.232 29.5629 133.965 29.3053Z" fill="#263238"/>
<path d="M128.836 29.8879C129.049 29.7634 129.254 29.6269 129.452 29.4791C129.687 29.3167 129.889 29.2159 130.012 28.9191C130.033 28.8381 130.027 28.7525 129.996 28.675C129.965 28.5974 129.909 28.5318 129.838 28.4879C129.682 28.4262 129.512 28.4066 129.346 28.4312C129.18 28.4558 129.024 28.5236 128.892 28.6279C128.595 28.8025 128.372 29.0792 128.265 29.4063C128.24 29.4825 128.238 29.5645 128.26 29.6416C128.282 29.7188 128.327 29.7876 128.388 29.8393C128.449 29.891 128.525 29.9233 128.605 29.9319C128.684 29.9406 128.765 29.9252 128.836 29.8879Z" fill="#263238"/>
<path d="M134.413 28.258C134.169 28.2721 133.924 28.2721 133.68 28.258C133.419 28.2931 133.153 28.242 132.924 28.1124C132.861 28.0573 132.818 27.9833 132.801 27.9015C132.784 27.8197 132.793 27.7346 132.829 27.6588C132.924 27.5195 133.054 27.4082 133.207 27.3363C133.36 27.2644 133.529 27.2346 133.697 27.25C134.041 27.2314 134.38 27.3411 134.649 27.558C134.707 27.6107 134.748 27.6791 134.768 27.7549C134.787 27.8307 134.785 27.9106 134.76 27.9849C134.735 28.0591 134.689 28.1245 134.627 28.173C134.566 28.2215 134.491 28.2511 134.413 28.258Z" fill="#263238"/>
<path d="M131.294 35.9524C131.45 36.0853 131.649 36.1569 131.854 36.154C132.059 36.1017 132.25 36.0063 132.414 35.874C132.414 35.874 132.453 35.874 132.442 35.874C132.393 35.9999 132.31 36.1099 132.202 36.1918C132.094 36.2738 131.966 36.3246 131.832 36.3388C131.712 36.3409 131.594 36.3067 131.494 36.2407C131.395 36.1748 131.317 36.0801 131.272 35.9692C131.272 35.9692 131.272 35.9412 131.294 35.9524Z" fill="#263238"/>
<path d="M131.451 34.1949C131.642 34.3734 131.868 34.5103 132.115 34.5971C132.362 34.6838 132.624 34.7185 132.885 34.6989C133.114 34.6853 133.341 34.6381 133.557 34.5589L133.674 34.5141L133.792 34.4637C133.819 34.4509 133.841 34.4299 133.855 34.4037C133.869 34.3775 133.874 34.3475 133.87 34.3181C133.873 34.2995 133.873 34.2807 133.87 34.2621V34.2117C133.781 33.7917 133.573 33.1701 133.573 33.1701C133.747 33.2093 134.609 33.3605 134.542 33.1701C134.015 31.307 133.3 29.502 132.409 27.7829C132.381 27.7325 132.291 27.7829 132.313 27.8221C132.789 29.5469 133.568 31.1821 134.077 32.9013C133.769 32.8428 133.455 32.8277 133.142 32.8565C133.086 32.8901 133.551 34.0549 133.579 34.2453C133.247 34.3656 132.894 34.4181 132.541 34.3998C132.188 34.3816 131.842 34.2928 131.524 34.1389C131.44 34.1109 131.406 34.1613 131.451 34.1949Z" fill="#263238"/>
<path d="M133.26 34.4799C133.092 34.8281 132.838 35.1271 132.521 35.3479C132.345 35.4643 132.137 35.5213 131.927 35.5103C131.468 35.5103 131.367 35.0903 131.367 34.7319C131.373 34.5422 131.404 34.3541 131.457 34.1719C132.008 34.4671 132.641 34.5752 133.26 34.4799Z" fill="#263238"/>
<path d="M132.521 35.3475C132.345 35.464 132.137 35.5209 131.927 35.5099C131.468 35.5099 131.367 35.0899 131.367 34.7315C131.601 34.6881 131.842 34.7254 132.052 34.8373C132.261 34.9493 132.427 35.1292 132.521 35.3475Z" fill="#F7A9A0"/>
<path d="M135.024 24.4447C132.745 27.2447 127.951 25.4527 127.951 25.4527C127.893 26.1477 127.613 26.8056 127.152 27.329C126.691 27.8524 126.074 28.2136 125.392 28.3591C125.392 28.3591 126.265 33.3655 124.989 33.7351C123.04 34.2951 120.475 27.8775 120.705 26.3991C120.934 24.9207 122.48 24.0975 122.48 24.0975C122.433 23.2573 122.702 22.43 123.236 21.7791C124.261 20.3623 129.25 20.3735 129.25 20.3735C129.332 19.6815 129.573 19.0181 129.956 18.4359C130.047 18.2927 130.166 18.1694 130.306 18.0735C130.446 17.9777 130.604 17.9113 130.771 17.8783C130.937 17.8453 131.109 17.8465 131.275 17.8817C131.441 17.9169 131.598 17.9854 131.737 18.0831C131.598 18.5129 131.559 18.9689 131.625 19.4159C131.815 20.8999 132.974 20.5359 132.577 19.2759C132.449 18.7905 132.15 18.3672 131.737 18.0831C132.056 17.0751 132.907 16.5207 133.607 16.8063C134.867 17.3159 136.922 22.1039 135.024 24.4447Z" fill="#263238"/>
<path d="M125.599 32.9964C125.599 32.9964 123.426 30.6332 122.329 31.4452C121.231 32.2572 123.113 35.8524 124.569 36.1828C124.753 36.2379 124.946 36.2551 125.137 36.2336C125.328 36.2121 125.513 36.1522 125.68 36.0575C125.848 35.9629 125.994 35.8354 126.111 35.6828C126.228 35.5301 126.313 35.3555 126.361 35.1692L125.599 32.9964Z" fill="#DD6A57"/>
<path d="M122.894 32.4643C122.894 32.4643 122.894 32.4643 122.894 32.4979C123.919 32.7611 124.574 33.6179 125.039 34.4859C124.969 34.3959 124.88 34.3222 124.779 34.2697C124.678 34.2173 124.567 34.1874 124.453 34.1821C124.339 34.1767 124.225 34.1961 124.12 34.2389C124.014 34.2817 123.919 34.3468 123.841 34.4299C123.841 34.4299 123.841 34.4859 123.874 34.4803C124.038 34.4014 124.222 34.3757 124.401 34.4068C124.579 34.438 124.744 34.5244 124.871 34.6539C125.082 34.8707 125.27 35.1091 125.431 35.3651C125.487 35.4491 125.638 35.3651 125.593 35.2867C125.442 34.0435 124.272 32.4083 122.894 32.4643Z" fill="#263238"/>
<path d="M134.189 42.3257L132.817 47.3153L126.198 41.9561L124.737 44.0841C124.737 44.0841 131.636 53.0161 131.619 52.5793L133.12 48.2393L136.284 50.7817L135.231 43.6193L134.189 42.3257Z" fill="#FFCF73"/>
<path d="M135.965 47.2085C135.752 46.0325 135.567 44.8453 135.304 43.6805C135.304 43.6357 135.225 43.6245 135.22 43.6805C135.113 44.8509 135.953 49.3421 136.071 50.4285C135.937 50.3165 133.148 48.1885 133.131 48.2501C132.778 48.9557 131.675 52.1141 131.608 52.3997C130.488 50.9773 126.366 45.8421 125.117 44.5261C125.114 44.5217 125.111 44.5179 125.106 44.5149C125.102 44.512 125.097 44.5099 125.092 44.5089C125.081 44.5068 125.07 44.509 125.061 44.5149C125.053 44.5208 125.046 44.5301 125.044 44.5406C125.042 44.5511 125.044 44.562 125.05 44.5709C126.047 46.0885 131.552 53.0157 131.619 52.9709C132.218 51.4719 132.74 49.9429 133.181 48.3901C133.663 48.8605 136.508 51.2741 136.497 51.0949C136.386 49.7912 136.208 48.494 135.965 47.2085Z" fill="#263238"/>
<path d="M181.616 20.3844L171.749 4.2228C171.919 4.49953 172.133 4.74719 172.381 4.9564C172.658 5.19098 172.97 5.38002 173.305 5.5164C175.881 6.5636 180.714 5.3932 187.714 2.0332L197.581 18.1948C190.581 21.5548 185.749 22.7252 183.173 21.678C182.836 21.5437 182.523 21.3544 182.249 21.118C181.997 20.9121 181.782 20.6638 181.616 20.3844Z" fill="#FFCF73"/>
<g opacity="0.1">
<path opacity="0.1" d="M181.616 20.3844L171.749 4.2228C171.919 4.49953 172.133 4.74719 172.381 4.9564C172.658 5.19098 172.97 5.38002 173.305 5.5164C175.881 6.5636 180.714 5.3932 187.714 2.0332L197.581 18.1948C190.581 21.5548 185.749 22.7252 183.173 21.678C182.836 21.5437 182.523 21.3544 182.249 21.118C181.997 20.9121 181.782 20.6638 181.616 20.3844Z" fill="black"/>
</g>
<path d="M180.552 17.8813C180.787 18.2839 180.975 18.7123 181.112 19.1581C181.24 19.5848 181.414 19.9961 181.633 20.3845L171.749 4.22293C171.53 3.83543 171.357 3.42388 171.233 2.99653C171.091 2.55295 170.903 2.12512 170.673 1.71973L180.552 17.8813Z" fill="#FFCF73"/>
<g opacity="0.4">
<path opacity="0.4" d="M180.552 17.8813C180.787 18.2839 180.975 18.7123 181.112 19.1581C181.24 19.5848 181.414 19.9961 181.633 20.3845L171.749 4.22293C171.53 3.83543 171.357 3.42388 171.233 2.99653C171.091 2.55295 170.903 2.12512 170.673 1.71973L180.552 17.8813Z" fill="black"/>
</g>
<path d="M170.69 1.72L180.552 17.8816C180.361 17.5641 180.114 17.2834 179.824 17.0528C179.545 16.8363 179.238 16.6592 178.911 16.5264C176.234 15.4456 171.39 16.7448 164.177 20.4856L154.31 4.324C161.523 0.583201 166.367 -0.715999 169.044 0.370401C169.372 0.500951 169.679 0.678254 169.957 0.896802C170.248 1.12546 170.497 1.40421 170.69 1.72Z" fill="#FFCF73"/>
<path d="M157.967 18.0273C157.791 19.7177 157.149 21.3259 156.112 22.6725C155.075 24.019 153.685 25.0509 152.095 25.6527C150.506 26.2545 148.781 26.4027 147.112 26.0806C145.443 25.7585 143.897 24.9789 142.645 23.8289L138.059 24.5233L140.355 20.5585C139.776 19.1563 139.559 17.6313 139.722 16.1233C140 13.7243 141.213 11.5317 143.098 10.0215C144.983 8.51131 147.387 7.8053 149.789 8.0567C152.191 8.3081 154.397 9.49663 155.928 11.3644C157.459 13.2321 158.192 15.6283 157.967 18.0329V18.0273Z" fill="white"/>
<path d="M157.967 18.0273C157.791 19.7174 157.152 21.326 156.119 22.6753C155.862 23.0123 155.583 23.3322 155.285 23.6329C154.979 23.9267 154.655 24.2016 154.316 24.4561C153.641 24.9682 152.896 25.3812 152.104 25.6825C151.312 25.9923 150.481 26.192 149.634 26.2761C149.211 26.3069 148.786 26.3069 148.363 26.2761C147.936 26.2649 147.511 26.2199 147.092 26.1417C145.401 25.8318 143.83 25.056 142.556 23.9017L142.662 23.9353L138.081 24.6409L137.751 24.6913L137.919 24.4001L140.198 20.4241V20.5809C139.661 19.2668 139.432 17.847 139.529 16.4306C139.626 15.0142 140.046 13.6389 140.758 12.4105C141.465 11.1847 142.446 10.1384 143.623 9.35276C144.8 8.56709 146.142 8.06316 147.545 7.88009C148.933 7.69728 150.345 7.83148 151.673 8.27259C153.002 8.71371 154.213 9.45026 155.216 10.4269C156.219 11.4035 156.988 12.5948 157.464 13.9112C157.941 15.2277 158.113 16.6349 157.967 18.0273ZM157.967 18.0273C158.112 16.6466 157.939 15.251 157.46 13.9478C156.982 12.6446 156.21 11.4686 155.206 10.5101C154.202 9.55169 152.991 8.83641 151.667 8.4193C150.342 8.00218 148.94 7.89435 147.568 8.10409C146.208 8.30549 144.913 8.81709 143.782 9.59929C142.659 10.3851 141.723 11.4078 141.038 12.5953C140.361 13.7821 139.963 15.1072 139.873 16.4705C139.786 17.8342 140.005 19.2001 140.512 20.4689L140.545 20.5529L140.512 20.6033L138.205 24.5625L138.042 24.3217L142.634 23.6777H142.696L142.741 23.7225C143.97 24.8593 145.489 25.6345 147.131 25.9625C147.541 26.0435 147.957 26.094 148.374 26.1137C148.792 26.1417 149.211 26.1417 149.629 26.1137C150.468 26.0433 151.294 25.8548 152.081 25.5537C152.883 25.2687 153.638 24.8668 154.321 24.3609C154.661 24.1122 154.984 23.8429 155.29 23.5545C155.586 23.2551 155.865 22.9392 156.125 22.6081C157.144 21.2774 157.781 19.6935 157.967 18.0273Z" fill="#263238"/>
<path d="M147.775 22.3062L143.855 18.3414L145.171 17.0422L147.461 19.355L152.216 11.9014L153.773 12.8982L147.775 22.3062Z" fill="#FFCF73"/>
</svg>
